<?xml version="1.0" standalone="no"?>
<!DOCTYPE svg PUBLIC "-//W3C//DTD SVG 1.1//EN" "http://www.w3.org/Graphics/SVG/1.1/DTD/svg11.dtd">
<svg xmlns="http://www.w3.org/2000/svg">
<metadata>Generated by Fontastic.me</metadata>
<defs>
<font id="loubicons" horiz-adv-x="512">
<font-face font-family="loubicons" units-per-em="512" ascent="480" descent="-32"/>
<missing-glyph horiz-adv-x="512" />

<glyph glyph-name="i53" unicode="&#57395;" d="M233 226c-28 8-60-6-73-32-12-25 0-54 29-63 30-9 65 5 77 33 12 27-3 55-33 62m-21-65c-6-9-19-13-28-9-9 4-12 15-6 24 6 9 18 13 27 9 9-4 12-15 7-24m19 25c-2-4-7-6-11-4-3 1-4 5-2 9 2 3 6 5 10 4 3-2 5-6 3-9m143 134c-12 12-28 17-44 14-6-1-10-8-9-14 2-6 8-10 14-9 8 2 16-1 21-7 6-6 7-14 5-22-2-6 2-13 8-15 6-1 12 2 14 8 5 15 2 32-9 45m-29-75c-4 1-8 2-5 9 5 14 6 26 0 35-12 17-43 16-79 1 0 0-12-5-9 4 6 17 5 32-4 41-19 20-72-1-116-45-34-34-53-69-53-100 0-59 75-94 149-94 96 0 161 56 161 100 0 27-23 42-44 49z m-117-129c-8 0-16 0-23 0-49 2-87 26-90 60-1 11 1 22 8 32 0 1 0 1 1 2 0 0 0 0 0 1 16 24 50 42 91 46 13 1 25 0 36-1 1 0 2-1 3-1 1 0 2 0 3 0 0 0 0 0 1 0 26-5 47-17 59-33 1-1 1-1 2-2 5-7 8-16 9-24 3-39-42-75-100-80z m182 236c-24 26-58 36-90 29-7-1-12-9-10-16 1-7 9-12 16-10 22 4 47-3 63-21 17-18 22-44 14-65-2-8 2-15 9-18 7-2 15 2 17 9 10 31 4 66-19 92z"/>
<glyph glyph-name="i1" unicode="&#57344;" d="M0 75l76-75 86 86c35-22 76-34 120-34 127 0 230 103 230 230 0 127-103 230-230 230-127 0-230-103-230-230 0-44 13-85 34-120z m282 58c-82 0-149 67-149 149 0 82 67 149 149 149 82 0 149-67 149-149 0-82-67-149-149-149z"/>
<glyph glyph-name="i4" unicode="&#57347;" d="M125 35c-8-8-8-21 0-29 8-8 21-8 29 0l233 235c8 8 8 21 0 29l-233 236c-8 8-21 8-29 0-8-8-8-21 0-29l213-221z"/>
<glyph glyph-name="i5" unicode="&#57348;" d="M35 387c-8 8-21 8-29 0-8-8-8-21 0-29l235-233c9-8 22-8 30 0l235 233c8 8 8 21 0 29-8 8-21 8-29 0l-221-213z"/>
<glyph glyph-name="i6" unicode="&#57349;" d="M387 35c8-8 8-21 0-29-8-8-21-8-29 0l-233 235c-8 8-8 21 0 29l233 236c8 8 21 8 29 0 8-8 8-21 0-29l-213-221z"/>
<glyph glyph-name="i7" unicode="&#57350;" d="M256 479c-141 0-255-85-255-191 0-61 38-116 98-151l-34-104 136 68c18-3 36-4 55-4 141 0 255 85 255 191 0 106-114 191-255 191z"/>
<glyph glyph-name="i8" unicode="&#57351;" d="M426 64c1 3 2 5 3 8-20 37-48 71-83 102-24-6-44-20-61-42-5 1-6 8-9 11-41 70-85 143-124 214 26 1 47 14 66 29-6 46-24 86-47 125-1 0-1 1-2 1-49 0-89-21-119-67-2-4-4-9-6-14-6-27 3-48 12-72 32-95 79-177 140-259 24-31 53-72 89-96 1 0 2-1 3-1 59-11 104 11 138 61z m-29 221l-93-52-44 79 92 53-22 39 124-34-35-124z"/>
<glyph glyph-name="i9" unicode="&#57352;" d="M487 435c-13 16-46 42-46 42l-7-6c0 0-97-139-112-170-15-30-41-117-56-140-15-23-19-28-34-32-15-4-52-1-70 2-17 4-16 6-24 4-5-1-8-2-12-3 0 0-68-29-79-34-8-5-44-27-45-35-2-8-3-18 2-20 5-2 186-6 204-6 19 1 50 2 60 8 11 7 48 50 75 103 27 53 70 115 76 120 7 5 22 16 29 18 6 1 11 3 14-1 3-4 2-250 2-250l16 0c0 0 8 190 9 205 2 15 5 63 10 76 5 14 13 29 13 46 0 16-12 57-25 73z"/>
<glyph glyph-name="i10" unicode="&#57353;" d="M25 435c13 16 46 42 46 42l7-6c0 0 97-139 112-170 15-30 41-117 56-140 15-23 19-28 34-32 15-4 52-1 70 2 17 4 16 6 24 4 5-1 8-2 12-3 0 0 68-29 79-34 8-5 44-27 46-35 1-8 2-18-3-20-5-2-186-6-204-6-19 1-50 2-60 8-11 7-48 50-75 103-27 53-70 115-76 120-7 5-22 16-29 18-6 1-11 3-14-1-3-4-2-250-2-250l-16 0c0 0-8 190-9 205-2 15-5 63-10 76-5 14-13 29-13 46 0 16 12 57 25 73z"/>
<glyph glyph-name="i11" unicode="&#57354;" d="M295 26c6 19 3 44-4 69-7 25-13 51-16 74-3 25-4 48 1 67 4 18 14 35 20 51 1 1 2 3 2 4 0 0 11 22 13 35 3 13 2 28 0 43-1 6-5 16-5 16-12 39-29 76-43 115-2 3-4 12-8 12-4-1-6-11-7-14-14-34-26-69-38-103l-2-5c-8-21-14-45-4-73 3-10 13-29 13-29 15-34 25-60 25-92 0-19-2-38-6-58-4-18-9-36-13-56-4-17-7-42 1-61 12-31 61-25 71 5z"/>
<glyph glyph-name="i12" unicode="&#57355;" d="M220 486c-7-19-4-44 3-69 7-25 14-51 17-74 3-25 3-48-2-67-4-18-13-35-20-51-1-1-1-3-2-4 0 0-11-22-13-35-3-13-2-28 0-43 1-6 5-16 5-16 12-39 29-76 44-115 1-3 4-12 8-12 3 1 5 11 7 14 14 34 26 69 37 103l2 5c9 21 14 45 4 73-3 10-12 29-12 29-16 34-25 60-26 92 0 19 3 38 7 58 3 18 9 36 13 56 3 17 7 42-1 61-13 31-62 25-71-5z"/>
<glyph glyph-name="i13" unicode="&#57356;" d="M1 372l0-281 511 0 0 281-256-184z m0 48l511 0-256-179z"/>
<glyph glyph-name="i14" unicode="&#57357;" d="M217 272c-54-6-95-39-91-74 3-36 50-60 104-55 54 5 95 39 91 74-3 36-50 60-104 55z m48-84c-11-25-43-38-70-30-26 9-37 34-26 58 12 22 41 35 66 28 27-7 41-32 30-56z m-9 325c-142 0-257-115-257-257 0-142 115-257 257-257 142 0 257 115 257 257 0 142-115 257-257 257z m-26-389c-68 0-137 33-137 87 0 28 18 60 48 91 42 41 90 60 108 42 8-8 8-22 3-38-3-8 8-4 8-4 33 14 62 15 73 0 5-8 5-20 0-33-3-6 0-7 5-8 19-6 40-20 40-45 0-41-59-92-148-92z m122 171c3 7 1 15-4 21-5 5-13 7-20 6-5-1-11 2-12 8-2 6 2 12 8 13 14 3 30-1 40-13 11-12 13-27 9-41-2-6-8-9-14-7-5 2-8 8-7 13z m63-20c-2-6-9-10-16-8-6 2-10 9-8 16 7 20 3 43-13 60-15 17-37 23-58 19-7-2-13 3-15 10-1 6 3 13 10 14 29 7 61-2 82-26 21-24 27-56 18-85z m-205-68c-9 3-20 0-25-8-5-8-3-18 6-22 8-4 19 0 25 8 5 9 2 18-6 22z m20 8c-3 2-7 0-9-3-2-3-1-7 3-8 3-1 7 0 9 3 2 4 1 7-3 8z"/>
<glyph glyph-name="i15" unicode="&#57358;" d="M256 512c-141 0-256-115-256-256 0-141 115-256 256-256 141 0 256 115 256 256 0 141-115 256-256 256z m67-169l-25 0c-19 0-23-9-23-23l0-29 46 0-6-46-40 0 0-118-47 0 0 118-40 0 0 46 40 0 0 34c0 39 24 60 59 60 17 0 31-1 36-1z"/>
<glyph glyph-name="i16" unicode="&#57359;" d="M256 512c-141 0-256-115-256-256 0-141 115-256 256-256 141 0 256 115 256 256 0 141-115 256-256 256z m29-329c-18 0-36 10-42 21 0 0-10-39-12-47-7-27-29-54-31-56-1-2-4-1-4 1 0 3-6 37 1 65 3 14 22 94 22 94 0 0-6 11-6 27 0 26 15 45 33 45 16 0 24-12 24-26 0-16-10-39-16-61-4-18 10-33 28-33 32 0 54 42 54 91 0 38-25 66-71 66-53 0-85-39-85-82 0-15 4-26 11-34 3-4 4-5 3-10-1-3-3-10-4-13-1-5-4-6-8-5-24 10-36 36-36 66 0 49 42 107 123 107 66 0 109-47 109-98 0-68-37-118-93-118z"/>
<glyph glyph-name="i17" unicode="&#57360;" d="M256 512c-141 0-256-115-256-256 0-141 115-256 256-256 141 0 256 115 256 256 0 141-115 256-256 256z m114-216c0-2 0-4 0-7 0-70-54-151-152-151-30 0-58 9-81 24 4-1 8-1 12-1 25 0 48 9 67 23-24 0-44 16-50 37 3-1 6-1 10-1 5 0 9 1 14 2-25 5-43 26-43 52 0 0 0 0 0 1 7-4 15-7 24-7-14 10-24 26-24 44 0 10 3 19 8 27 26-32 65-53 110-55-1 3-2 7-2 12 0 29 24 53 54 53 15 0 29-6 38-17 13 3 24 7 34 13-4-12-12-23-23-29 11 1 21 4 30 8-7-11-16-20-26-28z"/>
<glyph glyph-name="i18" unicode="&#57361;" d="M256 512c-141 0-256-114-256-256 0-141 115-255 256-255 141 0 256 114 256 255 0 142-115 256-256 256z m121-339l-242 0 0 135 121-88 121 88z m-121 72l-121 86 242 0z"/>
<glyph glyph-name="i19" unicode="&#57362;" d="M0 409l512 0 0-52-512 0z m0-127l512 0 0-52-512 0z m0-127l512 0 0-52-512 0z"/>
<glyph glyph-name="i20" unicode="&#57363;" d="M357 512l52 0 0-512-52 0z m-127 0l52 0 0-512-52 0z m-127 0l52 0 0-512-52 0z"/>
<glyph glyph-name="i21" unicode="&#57364;" d="M184 212c-1-6 2-6 5-5 6 13 7 19 6 22-3-1-9-12-11-17m-83-58c-7-1-34-11-30-21 2-8 19-2 36 9 6 4 11 7 16 11-7 3-15 3-22 1m178 118c4 7 10 26 5 25-8-2-23-32-26-41 0-1 0-2-1-4 9 4 17 13 22 20m5-30c4-1 11-4 12-5 1-1 1-1 1-1 2 2 5 6 4 6-1 5-20 1-17 0m-108-42c-3 5 6 19 9 23 0 0 1 2 1 2-4-2-9-8-12-13-7-10-11-19-12-34-1-11 5-9 11 0 5 7 9 14 13 22-4-2-8-3-10 0m80 312c-141 0-256-115-256-256 0-141 115-256 256-256 141 0 256 115 256 256 0 141-115 256-256 256z m203-298c-8-6-14-13-26-14-11-1-14 7-11 21 3 9 7 13 10 22 3 10-12 0-14-1-5-4-8-9-12-14-1-2-3-4-5-6 0 0-2-1-3-1 0 1 0 2 0 4 0 1-8-3-9-3-4 0-2 5-1 8 0 0 1 1 1 3-1-2-3-4-6-6-3-4-9-9-13-4-2 2-3 5-4 8-5-6-11-13-18-14-5-1-5 3-3 8-2-2-4-4-5-6-2-1-15-13-17-7-3 7 4 20 7 27-2-3-4-6-7-9-1-1-2-1-2-2-4-12-10-23-20-30-7-4-4 1-7 5 0 0-1 1-1 2 0-1-1-2-1-2-8-15-27-22-37-8-3 4-5 9-7 15-3-3-6-6-9-9-3-3-9-8-13-8-2 0-3 2-2 5-4-3-8-6-13-7-15-5-9 14-3 28-4-4-8-8-12-12-8-13-13-22-20-31-5-6-13-14-21-13-8 1-3 14 0 19-1-1-2-2-3-4-4-7-10-13-17-20 2 0 3-1 5-2 21-12 38-13 63-12 39 1 64 20 93 33 41 18 115 14 153-8 1-1-7-4-9-3-28 17-62 20-94 19-14-1-29-3-42-8-15-5-30-14-44-21-27-14-60-24-91-21-17 2-27 9-42 16-9-8-20-15-29-20-5-2-34-13-30 4 3 15 19 24 33 28 11 3 20 2 30-3 4 4 7 7 9 9 22 21 23 47 15 75-7 26-27 48-34 75-6 22-1 51 10 71 10 19 24 40 43 50 0 0 4 2 4 1 13-47-2-95-43-116-2-1-4 0-2 2 30 15 41 47 40 78 0 7 0 16-2 22-2 7-3 4-9-1-4-4-8-8-11-12-13-16-21-33-23-53-2-18 0-34 6-51 7-17 17-31 23-48 7-20 11-39 7-57 5 11 10 17 25 27 2 1 10 6 12 7 1 0 3-2 3-2 0-8-3-16-6-23 7 4 11 10 15 15 0 0 0 0 1 0 0 1 0 1 0 1 1 2 11 9 8 5-3-5-6-10-8-14-2-5-6-22-2-24 6-2 14 8 15 15 1 7 6 14 9 18 2 3 7 6 8 3-5-8-10-19-11-29-1-11 11 7 13 11 0 4-1 8-1 11 2 21 10 44 24 60 2 2 20 23 25 21 3-2 0-14-1-16-3-10-8-17-15-25-7-7-12-13-21-17-3-12-3-22 2-35 2-7 9-19 18-18 6 1 12 5 16 11-1 5 1 14 1 17-3 5-9 8-15 10-3 1-11 1-15-1-5-2-6-6-7-4-1 3 13 15 21 18 3 2 22 5 30 3 3 6 8 11 13 14 8 6 5-11 4-16 0-5-1-9-2-13 0 0 1 1 1 1 8 7 11 17 16 26 2 2 8 4 8 5-4-10-7-19-12-30-1-2-6-17-2-18 3-2 16 18 19 28 3 3 6 3 7 3 1-1-3-12-6-17-3-6 0-13 9-3 0 1 1 2 3 3-3 11-1 25 1 32 2 6 5 14 7 21-6-3-12-6-16-10-6-4-5-1-3 2 3 4 12 9 22 13 4 9 8 15 9 17 3 3 11 6 9 4-3-6-7-12-10-18 12 4 27 7 41 6 0 0-5-7-8-7-12 1-25-1-36-5-1-3-3-6-4-10-3-10-7-35-1-46 5-11 13 6 16 12 3 5 4 10 6 14 0 0-1 0-1 0 1 0 1 0 1 0 1 2 3 4 5 6 1 0 2 1 3 1 2-2-8-24-10-27-1-5-3-10 3-7 2 7 7 16 8 18 1 2 10 6 7 0-2-2-7-13-5-11 5 5 8 8 14 12 7 4 21 7 15-6-4-8-11-25-9-31 3-7 12-6 19-3 5 2 9 9 15 10 3 1-3-5-5-6z m-45 62c0 0-3-4-4-4 0-1-2-3-4-3-3 0-6-1-9-2-1 0-2-1-3-1-1-1-1-1-1-1 0 0 0 1 0 2 2 2 4 3 6 5 4 3 9 4 15 4z m-110-43c-2-5-2-12-2-16 0-5 1-18 6-5 2 5 4 8 6 13-5-2-9 0-10 8m9 5c1-3 2-4 3-5 1 5 2 12 1 13-3 2-5-5-4-8"/>
<glyph glyph-name="i23" unicode="&#57366;" d="M382 320c-9-4-18-6-28-7 10 6 18 15 21 26-9-5-19-9-30-11-9 9-21 15-35 15-27 0-48-22-48-48 0-4 0-8 1-11-40 2-75 21-99 50-4-7-6-15-6-24 0-17 8-31 21-40-8 0-15 2-22 6 0 0 0 0 0-1 0-23 17-42 39-47-4-1-8-1-13-1-3 0-6 0-9 0 6-19 24-32 45-33-16-13-37-20-60-20-3 0-7 0-11 0 21-13 46-21 73-21 89 0 137 73 137 136 0 2 0 4 0 6 9 7 17 16 24 25z m-125-320c-142 0-256 115-256 256 0 141 114 256 256 256 141 0 255-115 255-256 0-141-114-256-255-256z m0 487c-128 0-231-104-231-231 0-127 103-231 231-231 127 0 230 104 230 231 0 127-103 231-230 231z"/>
<glyph glyph-name="i24" unicode="&#57367;" d="M275 138l0 108 36 0 5 42-41 0 0 26c0 13 3 21 21 21l22 0 0 37c-4 1-17 2-33 2-32 0-54-19-54-55l0-31-36 0 0-42 36 0 0-108z m-18-138c-142 0-256 115-256 256 0 141 114 256 256 256 141 0 255-115 255-256 0-141-114-256-255-256z m0 487c-128 0-231-104-231-231 0-127 103-231 231-231 127 0 230 104 230 231 0 127-103 231-230 231z"/>
<glyph glyph-name="i25" unicode="&#57368;" d="M426 512l-340 0 126-218-126 0 170-295 170 295-126 0z"/>
<glyph glyph-name="i26" unicode="&#57369;" d="M256 420c30 39 63 71 128 66 65-5 123-59 128-125 3-47-17-82-38-110-63-85-147-155-217-226-67 62-150 138-211 217-24 31-50 63-46 118 3 36 21 66 41 85 20 19 50 38 86 41 68 6 100-29 129-66z"/>
<glyph glyph-name="i27" unicode="&#57370;" d="M512 309l-203 0 0 203-106 0 0-203-203 0 0-106 203 0 0-203 106 0 0 203 203 0z"/>
<glyph glyph-name="i28" unicode="&#57371;" d="M236 399c69 6 122-16 167-43 25-15 63-44 88-69 9-9 21-20 21-31 0-18-33-41-47-53-51-45-119-91-209-91-93 0-156 45-209 91-11 9-47 33-47 53 0 15 31 40 43 51 34 30 71 56 115 74 23 9 49 16 78 18z m-77-121c-13-65 32-110 75-119 55-11 106 25 118 74 7 34-2 60-14 79-15 23-51 47-97 41-43-6-74-38-82-75z m94 10c42 5 48-64 4-65-40-1-46 60-4 65z"/>
<glyph glyph-name="i29" unicode="&#57372;" d="M256 512c-124 0-174-82-174-178 0-95 174-334 174-334 0 0 174 239 174 334 0 96-50 178-174 178z m0-257c-48 0-86 38-86 86 0 47 38 86 86 86 48 0 86-39 86-86 0-48-38-86-86-86z"/>
<glyph glyph-name="i30" unicode="&#57373;" d="M1 422c-1 0-1-2-1-4 0-109 0-219 0-328 171 0 341 0 512 0 0 111 0 221 0 332-170 0-340 0-511 0z m434-35c2-3-12-12-18-16-51-37-109-78-160-116-63 41-121 88-183 130 118 3 241 1 361 2z m-129-142c55 43 112 82 168 123 2-46 1-94 1-143l0-99-94 0c-98-2-200 0-299-1 0 0 0 0 0 1l-45 0 0 15c0 76 0 152 0 227 57-39 112-81 169-121l32-24c10-11 27-9 38 0z"/>
<glyph glyph-name="i31" unicode="&#57374;" d="M256 0c-141 0-256 115-256 256 0 141 115 256 256 256 141 0 256-115 256-256 0-141-115-256-256-256z m0 487c-127 0-231-104-231-231 0-127 104-231 231-231 127 0 231 104 231 231 0 127-104 231-231 231z m115-164c-45-56-91-110-137-164-28 21-54 44-82 68-4 3-11 7-11 10-1 4 12 16 14 19 3 3 12 17 16 17 4 1 11-7 15-11 14-12 28-24 42-35 35 42 70 84 105 126 15-8 26-20 38-30z"/>
<glyph glyph-name="i32" unicode="&#57375;" d="M478 388l0-264-443 0 0 264 443 0m34 35l-512 0 0-334 512 0z m-437-167l200 0 0-18-200 0z m0-38l200 0 0-17-200 0z m0-37l200 0 0-18-200 0z m351 135c0 7 6 12 12 12l0 9c-6 0-12 5-12 12l-8 0c0-7-6-12-12-12-7 0-13 5-13 12l-6 0c0-7-6-12-13-12-6 0-12 5-12 12l-7 0c0-7-6-12-13-12l0-9c7 0 13-5 13-12 0-6-6-12-13-12l0-7c7 0 13-5 13-12 0-6-6-12-13-12l0-8c7 0 13-6 13-12l7 0c1 6 6 12 12 12 7 0 12-6 13-12l7 0c0 6 5 12 12 12 6 0 12-6 12-12l8 0c0 6 6 12 12 12l0 8c-6 0-12 6-12 12 0 7 6 12 12 12l0 7c-6 0-12 6-12 12z m-11-39l-49 0 0 48 49 0z"/>
<glyph glyph-name="i33" unicode="&#57376;" d="M391 283l0 153-263 0 0-153-128 0 0-207 512 0 0 207z m-239 129l216 0 0-129-216 0z m248-249l-288 0 0 32 288 0z m0-24l0-32-288 0 0 32z m81-32l-57 0 0 112-336 0 0-112-56 0 0 145 449 0z m-14 117c0-8-7-15-15-15-7 0-14 7-14 15 0 7 7 14 14 14 8 0 15-7 15-14z"/>
<glyph glyph-name="i34" unicode="&#57377;" d="M512 481l-31 31-225-225-225 225-31-31 225-225-225-225 31-31 225 225 225-225 31 31-225 225z"/>
<glyph glyph-name="i35" unicode="&#57378;" d="M512 496l-16 16-240-240-240 240-16-16 240-240-240-240 16-16 240 240 240-240 16 16-240 240z"/>
<glyph glyph-name="i36" unicode="&#57379;" d="M403 396c-51-37-101-80-152-114 0 27 0 53 0 79-80-5-142-65-133-153 8-72 67-128 151-122 63 5 112 54 122 113 2 11 1 25 5 37 13 34 69 33 79-3 8-29-5-71-14-93-30-73-98-132-192-137-77-5-131 27-170 65-39 39-69 94-64 170 3 63 33 113 66 145 37 36 80 57 150 61 0 22 0 44 0 66 0 2 1 2 1 1 50-38 102-75 151-115z"/>
<glyph glyph-name="i37" unicode="&#57380;" d="M303 354l-20 20c0 0 0 0 1 1 8 9 10 21 6 32-4 11-13 20-25 21l-1 1 4 27c0 0 1 0 1 0 22-3 41-19 48-40 7-21 2-44-12-60-1-1-2-1-2-2z m47-34l-20 20c0 1 1 1 2 2 21 23 27 56 17 85-10 30-36 52-67 57-1 0-1 0-2 0l4 28c1 0 1 0 2 0 42-7 76-36 90-75 13-39 4-83-23-114-1-1-2-2-3-3z m66-266c1 2 2 4 3 6-17 31-41 60-70 86-20-4-37-16-51-35-4 1-6 6-8 10-34 58-71 120-104 179 21 1 39 12 55 25-5 38-20 73-40 105 0 0-1 1-1 1-41 0-75-18-100-56-2-4-4-8-5-12-5-23 2-41 10-61 27-80 66-149 118-218 19-26 44-60 75-81 0 0 1 0 2-1 49-9 88 9 116 52z"/>
<glyph glyph-name="i38" unicode="&#57381;" d="M210 316l0-124 122 62z m137 11c19-3 37-3 57-6-16 39-46 75-94 95-48 20-96 16-133 2-45-18-84-54-105-117-17 7-33 14-50 21 25 72 71 116 123 139 52 24 108 31 177 7 72-25 110-78 134-129 13 17 27 30 40 48 2-9 17-25 15-36-2-6-10-14-14-22-12-21-27-47-39-67-22 8-49 17-73 25-9 3-20 5-24 8-11 7-9 23-14 32z m142-138c-25-72-71-115-123-139-52-23-108-31-177-7-72 26-110 78-134 129-13-17-27-30-40-47-2 8-17 24-15 35 2 6 10 15 14 22 12 22 27 48 39 67 22-7 49-16 73-24 9-3 20-5 24-8 11-7 9-23 14-33-19 3-37 3-57 6 16-39 46-74 94-94 48-21 96-16 133-2 45 17 84 53 105 116 17-7 33-14 50-21z"/>
<glyph glyph-name="i39" unicode="&#57382;" d="M424 512l0-512-336 256z"/>
<glyph glyph-name="i40" unicode="&#57383;" d="M256 96l-255 255 64 65 191-191 191 191 65-65z"/>
<glyph glyph-name="i41" unicode="&#57384;" d="M256-1c-141 0-256 115-256 257 0 141 115 256 256 256 142 0 257-115 257-256 0-142-115-257-257-257z m0 468c-116 0-211-95-211-211 0-117 95-212 211-212 117 0 212 95 212 212 0 116-95 211-212 211z m-34-320c0 20 14 34 34 34 19 0 32-14 33-34 0-20-13-34-33-34-21 0-34 14-34 34z m12 65l-8 169 59 0-8-169z"/>
<glyph glyph-name="i42" unicode="&#57385;" d="M256 1c-141 0-256 115-256 255 0 141 115 256 256 256 140 0 255-115 255-256 0-140-115-255-255-255z m0 467c-117 0-212-95-212-212 0-116 95-211 212-211 116 0 211 95 211 211 0 117-95 212-211 212z m-53-333l-91 94 32 31 60-61 163 163 31-32z"/>
<glyph glyph-name="i43" unicode="&#57386;" d="M512 415c-18-8-39-14-60-17 22 13 38 34 46 58-20-12-42-20-66-25-19 20-47 33-77 33-58 0-104-47-104-105 0-8 0-16 2-24-87 5-164 46-216 110-9-16-14-34-14-53 0-36 19-68 47-87-17 0-34 5-48 13 0 0 0-1 0-1 0-51 36-93 84-103-8-2-18-4-27-4-7 0-14 1-20 2 13-41 52-72 98-73-36-28-81-44-130-44-9 0-17 0-25 1 46-30 101-47 160-47 193 0 298 160 298 298 0 5 0 9 0 14 21 14 38 33 52 54z"/>
<glyph glyph-name="i44" unicode="&#57387;" d="M256 310c19 27 47 53 97 48 46-5 92-37 125-65 9-7 33-29 33-31 0-7-43-39-50-44-56-46-128-92-229-85-111 7-174 69-230 128 41 36 95 99 171 98 39 0 64-23 83-49z m-97-69c52-19 132-19 182 1-52 12-132 14-182-1z"/>
<glyph glyph-name="i45" unicode="&#57388;" d="M441 512l-185-185-184 185-72-72 185-184-185-185 72-71 184 184 185-184 71 71-184 185 184 184z"/>
<glyph glyph-name="i46" unicode="&#57389;" d="M256 66c-34 0-68 0-101 0-28 0-49 12-64 36-5 9-7 19-9 30-3 28-6 57-10 85-3 30-7 60-10 90-1 7-2 14-3 21-1 7 3 12 11 12 18 1 37 2 55 3 19 1 37 2 55 3 3 1 3 2 3 4 4 15 6 31 10 46 3 9 7 18 11 26 7 13 19 21 34 24 13 3 25 3 37 0 18-4 29-16 36-32 7-15 11-30 14-46 1-6 2-12 3-18 0-3 1-4 4-4 29-2 59-3 89-5 6-1 13-1 20-1 8 0 12-5 11-13-3-30-7-60-10-90-4-32-8-64-12-96-1-9-2-19-5-27-10-29-37-48-68-48-34 0-67 0-101 0z m-180 258c1-5 1-9 2-13 3-26 6-52 9-77 3-26 6-53 10-79 1-10 2-20 4-30 5-25 27-42 53-42 67 0 134 0 201 0 3 0 7 0 11 1 22 2 42 21 45 43 2 15 4 30 6 46 5 45 11 90 16 136 1 5 1 9 2 15-34-3-68-5-102-7 1-5 1-8 2-12 0-2 1-4 3-5 6-5 8-14 3-21-5-6-14-8-21-3-7 5-8 14-3 21 1 1 1 2 1 3 0 5-1 10-2 16-40-5-80-5-121 0 0-6-1-10-2-15 0-1 1-2 1-3 3-4 4-8 3-12-1-7-6-12-13-13-7 0-13 3-15 10-3 6-1 13 5 17 1 1 2 2 2 4 1 4 2 8 2 13-34 2-67 4-102 7z m235 25c-3 19-6 40-16 58-2 5-5 9-9 13-20 20-56 13-70-12-6-12-9-25-12-37-1-8-3-15-4-22 37 0 74 0 111 0z"/>
<glyph glyph-name="i47" unicode="&#57390;" d="M184 103l-124 128 44 42 81-84 222 222 42-43z"/>
<glyph glyph-name="i40-1" unicode="&#57391;" d="M256 96l-255 255 64 65 191-191 191 191 65-65z"/>
<glyph glyph-name="i48" unicode="&#57392;" d="M133 342l52 0 0 51c0 23 1 58 17 79 18 23 41 39 82 39 67 0 95-10 95-10l-13-78c0 0-22 6-43 6-20 0-39-7-39-27l0-60 84 0-6-76-78 0 0-265-98 0 0 265-53 0z"/>
<glyph glyph-name="i49" unicode="&#57393;" d="M212 184c1 3 2 8 3 14l21 75c0 1 0 2 1 3 0 1 0 1 0 2 0 5-2 8-4 9-3 1-8 1-16 2l0 9c6 0 15 1 27 2 12 2 21 3 26 4l14 3-26-96c-2-8-3-14-4-17-2-8-3-14-3-16 0-2 0-4 1-5 2 0 3-1 4-1 3 0 8 3 13 9 5 6 9 12 13 18l7-5c-11-16-19-27-25-32-9-9-19-14-30-14-6 0-12 2-17 6-5 3-7 9-7 17 0 3 1 7 2 13z m79 191c4-4 7-10 7-16 0-6-3-11-7-16-4-4-10-7-16-7-6 0-11 3-16 7-4 5-7 10-7 16 0 6 3 12 7 16 5 4 10 7 16 7 6 0 12-3 16-7z m-35-369c-139 0-251 112-251 251 0 138 112 251 251 251 138 0 251-113 251-251 0-138-113-251-251-251z m0 468c-120 0-218-97-218-217 0-120 98-218 218-218 120 0 217 98 217 218 0 120-97 217-217 217z"/>
<glyph glyph-name="i51" unicode="&#57394;" d="M232 203c-2-8-4-16-6-23-5-18-8-36-16-53-8-16-17-31-28-45-1-1-2-2-3-2-1 1-2 2-2 3-1 8-2 15-3 23-1 15-1 30 2 44 2 12 5 23 7 34 6 22 11 45 16 67 1 3 1 5 2 7 3 8 1 15-1 23-5 19-4 38 6 55 7 11 16 18 30 19 15 0 25-10 27-25 1-12-1-22-4-33-4-14-9-28-13-42-7-26 13-44 36-42 19 2 31 13 40 28 11 17 17 36 19 56 1 11 2 22 1 33-2 33-23 57-55 66-25 7-51 5-75-6-32-15-50-42-54-78-2-13-1-27 6-40 2-3 4-7 7-10 3-4 4-7 2-12-1-5-2-11-4-16-1-5-5-6-10-4-18 7-29 21-35 39-10 29-8 58 5 86 16 35 43 58 79 70 16 6 32 8 50 9 18 1 36-2 54-8 37-14 62-39 75-76 4-13 5-26 5-39-1-22-5-44-14-65-11-25-27-45-51-57-16-9-33-12-51-10-17 1-32 8-42 22 0 1-1 1-2 2z"/>
<glyph glyph-name="i3" unicode="&#57346;" d="M477 125c8-8 21-8 29 0 8 8 8 21 0 29l-235 233c-8 8-21 8-30 0l-235-233c-8-8-8-21 0-29 8-8 21-8 29 0l221 212z"/>
<glyph glyph-name="i52" unicode="&#57396;" d="M141 457c44 0 65-22 92-56l24-29 23 30c27 35 50 55 92 55 3 0 7 0 10-1 25-2 49-13 68-31 18-18 30-42 32-66 3-38-14-66-32-90-43-58-97-110-150-160-14-14-29-28-44-42-59 54-132 124-187 194-22 29-42 54-39 97 2 24 14 49 32 66 12 11 36 30 67 32 4 1 9 1 12 1m0 30c-4 0-9 0-14-1-36-3-66-22-86-41-20-19-38-49-41-85-4-55 22-87 46-118 62-79 144-155 211-217 70 71 154 141 217 226 21 28 41 63 38 110-5 66-63 120-128 125-4 1-8 1-12 1-57 0-89-31-116-67-27 34-56 67-115 67z"/>
<glyph glyph-name="i54" unicode="&#57397;" d="M506 396c0 0 19-78-31-116 0 0-57 30-84 30-27 0-30-6-43-30-14-25-55-59-70-79-15-20-26-34-26-60 0-36-23-17-26 23-4 39 27 65 27 65 0 0-109-47-129-59-39-23-80-26-62-13 17 14 92 58 102 67 10 9 1 8-18 1-19-6-104-28-135-19-31 9 87 29 142 58 19 10-25 7-67-5-60-17-123-13-51 10 73 22 112 30 123 33 11 4 13 22-49 23-71 1-92 21-49 22 55 1 127-8 154-3 27 4 69 34 108 38 38 3 184 14 184 14z"/>
<glyph glyph-name="i55" unicode="&#57398;" d="M83 458l349-202-349-202z"/>
<glyph glyph-name="i56" unicode="&#57399;" d="M256 492c0 0 157-251 157-329 0-78-71-143-157-143-86 0-157 65-157 143 0 78 157 329 157 329z"/>
<glyph glyph-name="i57" unicode="&#57400;" d="M377 175c-18 0-35-5-49-15l-108 75c1 6 2 13 2 21 0 7-1 14-2 20l108 75c14-10 31-15 49-15 48 0 87 39 87 87 0 48-39 87-87 87-48 0-87-39-87-87 0-7 1-14 2-21l-108-75c-14 10-31 16-49 16-48 0-87-39-87-87 0-49 39-88 87-88 18 0 35 6 49 16l108-75c-1-7-2-14-2-21 0-48 39-87 87-87 48 0 87 39 87 87 0 48-39 87-87 87z"/>
<glyph glyph-name="i58" unicode="&#57401;" d="M323 90c0 0 0 0-1 0 0 0 0 1 0 1l-19 25c0 0-1 0-1 0 0 0-1 0-1 0 0 0-5 0-11 0l0 13-1 0c0 0-7 5-7 12 0 6 4 8 4 8l1 0 0 1c0 4-24 350-24 354 0 3 0 4-1 5-1 1-3 2-4 2-1 0-2-1-3-2-1-1-2-2-2-5 0-4-24-350-24-354l0-1 1 0c0 0 5-2 5-8 0-7-8-12-8-12l-1 0 0-13c-6 0-11 0-11 0 0 0-1 0-1 0l-20-25c0 0 0-1 0-1l0-53c0-1 0-1 0-1l21-35c1 0 1 0 1 0l42 0c0 0 42 0 42 0 0 0 0 0 1 0l21 35c0 0 0 0 0 1z m-93 37c2 2 8 7 8 14 0 6-3 9-6 10 2 23 24 349 24 353 0 2 1 3 1 3 1 1 2 1 2 0 0 0 1-1 1-3 0-4 22-330 24-353-2-1-6-4-6-10 0-7 6-12 8-14l0-11c-9-3-19-4-28-4-9 0-19 1-28 4z m-4-14l2 0c10-3 20-4 30-5 10 1 20 2 31 5l1 0c5 0 9 0 9 0l0-5-81 0-1 5c0 0 4 0 9 0z m32-32l-26 0-13 24 78 0-12-24z m26-3l0-49-52 0 0 49z m-85-45l-2 4 0 45 2-5z m-2 56l17 22 0-4-13-26z m19-84l-13 23 0 49 13 26 13-24 0-51z m42-1l-39 0 13 22 52 0 13-22z m55 24l-13-23-13 23 0 51 13 24 13-26z m-11 79l0 4 17-22-4-8z m17-70l-2-4 0 44 2 5z"/>
<glyph glyph-name="i60" unicode="&#57402;" d="M165 81c2 8 4 17 8 29l45 164c0 2 1 4 1 6 0 2 0 4 0 5 0 10-3 16-9 19-6 2-17 3-34 4l0 19c14 1 34 3 60 6 26 3 44 6 55 8l31 6-56-208c-5-18-8-30-10-37-4-17-6-29-6-34 0-5 1-9 3-10 3-2 5-3 8-3 8 0 17 7 28 19 11 13 20 26 29 40l16-10c-24-35-42-59-55-71-21-20-43-30-66-30-14 0-26 4-36 12-11 9-16 21-16 38 0 6 1 15 4 28z m172 415c9-10 14-21 14-35 0-13-5-25-14-35-10-9-21-14-35-14-13 0-25 5-35 14-9 10-14 21-14 35 0 14 5 25 14 35 10 9 22 14 35 14 14 0 25-5 35-14z"/>
<glyph glyph-name="i61" unicode="&#57403;" d="M255 5c-64 0-128 0-192 0-34 0-60 25-60 60 0 128 0 256 0 384 0 34 26 60 59 60 129 0 258 0 386 0 33 0 59-26 59-59 0-129 0-257 0-386 0-33-25-59-59-59-64 0-128 0-193 0z m-194 290c0-1 0-2 0-4 0-69 0-137 0-206 0-14 8-22 22-22 115 0 230 0 345 0 13 0 21 8 21 21 0 69 0 138 0 207 0 1 0 3 0 4-15 0-29 0-43 0 18-73-19-138-65-167-53-34-109-37-163-5-65 39-87 99-74 173-13-1-28-1-43-1z m194-135c54 0 97 43 97 97 0 54-43 97-97 97-53 0-97-44-97-97 0-54 44-97 97-97z m194 242c0 10 0 19 0 28 0 13-8 21-21 21-18 0-37 0-55 0-13 0-21-9-21-21 0-18 0-37 0-56 0-12 8-20 20-20 19 0 38 0 57 0 12 0 20 8 20 20 0 9 0 19 0 28z"/>
<glyph glyph-name="i62" unicode="&#57404;" d="M256 4c-10 13-20 25-30 37-40 50-77 102-107 158-17 30-32 60-38 94-12 63 1 119 46 166 25 26 57 40 92 46 33 5 67 4 99-6 59-19 96-59 112-118 12-46 6-90-13-134-18-43-41-82-67-121-27-40-57-79-89-116-1-2-3-3-5-6z m0 48c2 2 3 3 3 4 22 28 44 55 65 84 25 35 47 72 64 111 17 40 22 80 10 121-11 42-35 73-74 90-34 16-70 17-106 10-28-6-52-18-71-39-34-38-43-83-37-132 4-27 15-52 27-76 21-42 48-81 76-119 14-18 28-36 43-54z m1 227c-26 0-48 22-48 48 0 27 22 48 49 48 26 0 47-22 47-48 0-27-21-48-48-48z"/>
<glyph glyph-name="i63" unicode="&#57405;" d="M256 510c141-1 253-114 253-254 0-141-113-253-253-253-140 0-253 113-253 253 0 140 113 253 253 254z m-1-478c123-2 223 98 226 219 2 125-98 227-220 230-126 2-227-99-230-221-2-126 101-229 224-228z m-11 311c0 29 0 58 0 86 0 2 0 4 0 6 1 6 6 10 12 10 6 1 12-4 12-11 1-4 0-9 0-14 0-51 0-101 0-152 0-5 1-8 5-12 22-22 44-44 66-66 2-2 4-3 6-5 3-5 3-12-1-16-4-5-11-5-17-1-1 1-2 2-4 4-25 25-50 49-75 75-2 2-4 7-4 10 0 29 0 58 0 86z"/>
<glyph glyph-name="i64" unicode="&#57406;" d="M416 256l-255-255-65 64 191 191-191 191 65 64z"/>
<glyph glyph-name="i65" unicode="&#57408;" d="M256 42c-68 0-136 0-204 0-24 0-42 14-48 36-1 4-1 8-1 12 0 79 0 157 0 236 0 25 17 44 41 48 22 3 43 7 64 11 2 0 4 2 4 3 7 17 14 34 21 50 8 20 24 31 45 31 52 0 105 0 157 0 20 0 35-10 43-28 8-17 14-35 21-52 1-3 3-4 6-5 22-3 44-7 65-11 24-4 39-23 39-47 0-72 0-144 0-216 0-9 1-18-1-27-4-25-23-41-48-41-68 0-136 0-204 0z m0 32c67 0 135 0 203 0 12 0 18 6 18 18 0 77 0 154 0 231 0 1 1 3 0 4-1 9-5 14-13 15-28 5-55 10-82 14-3 0-4 1-5 4-9 22-18 44-27 66-3 8-8 11-17 11-51 0-103 0-154 0-9 0-14-3-17-11-9-22-18-44-27-66-1-3-2-4-4-4-27-4-54-9-80-13-11-2-16-8-16-20 0-77 0-154 0-230 0-11 6-20 19-20 67 1 134 1 202 1z m0 41c-65 0-117 52-117 117 0 64 53 116 117 116 64 0 117-52 117-117-1-64-53-116-117-116z m0 29c48 0 87 40 87 88 0 48-39 87-86 87-49 0-88-39-88-87 0-48 39-88 87-88z"/>
<glyph glyph-name="i2" unicode="&#57345;" d="M0 416l512 0-256-336z"/>
<glyph glyph-name="i66" unicode="&#57407;" d="M3 289c170 74 338 148 508 222-42-169-85-338-127-508-43 32-84 64-126 95-32-31-63-63-95-94 0 0-1 0-1 0 0 2 0 3 0 4 0 50 0 100 0 150 0 3 1 5 3 7 81 81 162 162 243 243 1 1 3 2 5 3-1 0-1 1-2 2-1-1-3-2-4-3-101-60-202-121-303-182-4-2-7-2-11 1-28 19-57 38-85 56-1 1-3 2-5 4z"/>
<glyph glyph-name="i67" unicode="&#57409;" d="M366 256c0 7-3 12-9 15l-146 92c-6 4-12 4-19 0-6-3-9-8-9-16l0-182c0-8 3-13 9-16 3-2 6-3 9-3 4 0 7 1 10 3l146 92c6 3 9 8 9 15z m146 0c0-18 0-33 0-43 0-10-1-23-3-39-1-16-3-30-6-42-3-14-10-26-20-35-10-10-22-15-35-17-43-4-106-7-192-7-86 0-149 3-192 7-13 2-25 7-35 17-10 9-17 21-20 35-3 12-5 26-6 42-2 16-3 29-3 39 0 10 0 25 0 43 0 18 0 33 0 43 0 10 1 23 3 39 1 16 3 30 6 42 3 14 10 26 20 35 10 10 22 15 35 17 43 4 106 7 192 7 86 0 149-3 192-7 13-2 25-7 35-17 10-9 17-21 20-35 3-12 5-26 6-42 2-16 3-29 3-39 0-10 0-25 0-43z"/>
<glyph glyph-name="i68" unicode="&#57410;" d="M256 150c-100 0-181 81-181 181 0 100 81 181 181 181 100 0 181-81 181-181 0-100-81-181-181-181z m0 344c-90 0-163-73-163-163 0-90 73-163 163-163 90 0 163 73 163 163 0 90-73 163-163 163z m0-242c-20 0-40 0-61 0-10 0-18 8-18 18 0 41 0 81 0 122 0 10 8 18 18 18 41 0 81 0 122 0 10 0 18-8 18-18 0-41 0-81 0-122 0-10-8-18-18-18-20 0-41 0-61 0z m-61 91c0 0 0-1 0-1 0-22 0-44 0-65 0-5 2-7 7-7 36 0 72 0 108 0 5 0 7 2 7 7 0 21 0 43 0 65 0 0 0 1 0 1-4 0-9 0-14 0 6-23-5-43-20-53-17-10-34-11-51-1-21 12-28 31-23 54-5 0-9 0-14 0z m61-43c17 0 31 14 31 31 0 17-14 31-31 31-17 0-31-14-31-31 0-17 14-31 31-31z m61 77c0 3 0 6 0 9 0 4-3 6-6 6-6 0-12 0-18 0-4 0-6-3-6-6 0-6 0-12 0-18 0-4 2-6 6-6 6 0 12 0 18 0 3 0 6 2 6 6 0 3 0 6 0 9z"/>
<glyph glyph-name="i69" unicode="&#57411;" d="M257 0c-142 0-256 115-256 256 0 141 114 256 256 256 141 0 255-115 255-256 1-141-114-256-255-256z m0 487c-128 0-231-104-231-231 0-127 103-231 231-231 127 0 230 104 230 231 0 127-103 231-230 231z m79-224c-5 1-8 2-5 8 5 13 6 25 0 33-11 15-40 14-73 0 0 0-10-4-8 4 5 16 4 30-3 38-18 18-66-1-108-42-30-31-48-63-48-91 0-54 69-87 137-87 89 0 148 51 148 92 0 25-21 39-40 45z m-108-118c-54-5-101 19-104 55-4 35 37 68 91 73 54 6 101-19 104-54 4-36-37-69-91-74z m129 139c6-2 12 1 14 7 4 14 2 29-9 41-10 11-26 16-40 13-6-1-10-7-8-13 1-6 7-9 12-8 7 1 15-1 20-7 5-5 7-13 4-20-1-5 2-11 7-13z m-124-38c-25 7-54-6-66-29-11-23 0-48 26-57 27-8 59 5 70 30 11 24-3 49-30 56z m-19-59c-5-8-17-12-25-8-8 4-11 14-6 22 6 8 16 11 25 8 8-4 11-13 6-22z m17 22c-2-3-6-5-9-3-4 1-5 5-3 8 2 3 6 5 9 3 4-1 5-4 3-8z m164 153c-21 23-53 32-82 26-7-1-11-8-10-15 2-6 8-11 15-9 21 4 43-2 58-19 16-17 20-40 13-60-2-7 2-14 8-16 7-2 14 2 16 8 9 29 4 61-18 85z"/>
<glyph glyph-name="i70" unicode="&#57412;" d="M257 0c-142 0-256 115-256 256 0 141 114 256 256 256 141 0 255-115 255-256 1-141-114-256-255-256z m0 487c-128 0-231-104-231-231 0-127 103-231 231-231 127 0 230 104 230 231 0 127-103 231-230 231z m136-212c0 3 0 6 0 9-1 4-1 9-1 13 0 2 0 5-1 7-1 5-1 9-2 14-1 4-3 8-5 12-2 4-4 6-7 9-3 3-7 5-11 6-3 1-5 1-8 2-4 0-9 1-13 1-3 0-7 0-10 0-4 1-9 1-13 1-6 0-12 0-17 0-4 1-8 1-12 1-7 0-13 0-19 0-1 0-1 0-1 0-11 0-22 0-33 0-1 0-1 0-2 0-1 0-2 0-4 0-8 0-16 0-24 0-3 0-7 0-10-1-5 0-10 0-15 0-4 0-7 0-11-1-5 0-9 0-13 0-6-1-11-1-16-4-4-1-7-3-10-6-6-5-9-12-11-19 0-3-1-6-2-9 0-3 0-6-1-8 0-4 0-8-1-12 0-1 0-3 0-4 0-3 0-6 0-9 0 0-1 0-1-1 0-15 0-29 0-44 0-1 1-1 1-1 0-3 0-6 0-9 0-4 1-8 1-12 0-3 0-6 1-9 0-4 1-7 2-10 1-5 2-9 5-13 2-4 5-8 8-10 5-4 11-6 16-7 5 0 9-1 13-1 3 0 6-1 9-1 5 0 9 0 13 0 3 0 6 0 9 0 3-1 6-1 10-1 4 0 8 0 12 0 5 0 10 0 15 0 6 0 13-1 20-1 0 0 1 0 1 0 1 0 3 0 4 0 1 0 1 0 1 0 4 0 7 0 10 0 9 0 18 1 27 1 3 0 7 0 10 0 3 0 6 0 9 0 4 0 9 1 13 1 4 0 8 0 12 0 3 0 7 1 11 1 6 1 12 1 18 4 6 4 12 9 15 15 2 6 4 11 5 17 1 4 1 8 1 12 1 4 1 9 1 13 1 4 1 8 1 12 0 0 0 0 0 1 0 13 0 26 0 40 0 0 0 1 0 1z m-165 20l74-38-74-38z"/>
<glyph glyph-name="i71" unicode="&#57413;" d="M269 93c0 4-1 8-2 12-1 4-1 7-2 10-1 3-3 7-5 10-3 4-5 6-6 9-2 2-5 5-8 8-3 4-6 6-8 8-2 1-5 4-9 7-4 3-7 5-9 6-1 2-5 4-9 7-5 3-8 5-9 6-3 0-8 1-14 1-11 0-21-1-31-2-9-2-20-4-30-8-11-3-20-7-28-13-8-5-15-12-20-21-5-9-8-19-8-31 0-13 4-24 10-34 7-11 16-19 27-24 11-6 22-11 34-13 12-3 24-5 37-5 11 0 22 1 32 4 10 2 19 6 28 11 9 5 16 12 22 21 5 9 8 19 8 31z m-35 247c0 11-1 23-4 36-4 13-8 25-14 37-6 12-14 22-24 30-10 8-21 12-34 12-18 0-31-7-41-20-10-13-15-29-15-47 0-9 1-18 4-28 2-10 5-20 10-30 4-10 10-19 16-27 6-8 13-14 22-19 9-5 18-7 28-7 18 0 32 5 40 17 8 11 12 27 12 46z m-37 135l125 0-39-22-38 0c13-9 24-21 31-36 7-16 11-32 11-48 0-15-2-27-6-38-5-11-10-20-16-26-7-7-13-13-19-19-7-5-12-11-16-17-5-6-7-13-7-20 0-5 2-9 5-14 3-5 7-9 12-14 5-4 11-9 17-14 6-4 12-10 18-15 6-6 12-13 17-19 5-7 9-15 12-25 3-9 5-19 5-30 0-30-13-57-40-81-29-25-69-37-120-37-11 0-23 1-34 3-12 2-23 5-35 9-12 5-22 10-31 17-9 7-16 15-22 25-6 11-9 22-9 35 0 12 4 25 11 39 6 12 15 22 27 31 12 9 26 16 42 21 15 4 30 8 44 10 14 2 28 3 43 4-12 16-18 30-18 42 0 3 0 5 0 7 1 2 1 4 2 6 0 1 1 3 2 6 1 2 1 4 2 6-8-1-14-2-20-2-29 0-53 10-73 28-20 19-31 43-31 71 0 26 9 50 28 71 18 21 40 35 66 41 18 4 36 5 54 5z m297-73l0-36-73 0 0-73-37 0 0 73-73 0 0 36 73 0 0 73 37 0 0-73z"/>
<glyph glyph-name="i22" unicode="&#57365;" d="M421 218c-1-2-1-3 1-1 0 0 0 0 1 0 0 0 1 1 2 1 4 2 8 2 12 2 2-1 5 2 6 3 0 1 5 6 5 6-7 0-14-1-20-5-2-2-5-4-7-6m87-63c-8-2-13-10-21-12-7-3-20-4-22 5-3 8 6 28 13 39 8 15-10 13-20 7-7-4-11-8-17-14-3-2 4 12 6 15 5 7-6 2-8 0-2-2-8-13-12-23-7-3-5 3-2 10 1 3 16 30 13 33-1 0-3-1-3-1-4-2-6-5-7-7-1 0-1 0-1-1-3-5-3-11-7-17-5-7-16-28-22-13-6 13 0 44 5 57 1 5 3 9 5 13 15 3 31 5 46 3 3 0 10 9 10 9-17 2-36-1-52-5 4 8 9 14 14 22 2 2-8-1-12-5-1-2-6-10-12-20-13-5-24-10-28-15-3-4-5-7 3-3 6 4 13 8 22 11-5-9-9-18-11-26-3-9-6-26-4-40-2-1-4-3-4-3-11-13-15-3-11 3 4 7 10 20 9 21-1 1-5 1-9-2-5-13-22-37-26-35-4 2 3 20 4 23 6 14 11 24 17 37 0-1-8-3-10-6-8-11-11-24-22-32-1 0-1-1-2-1 1 5 3 11 4 16 2 7 7 28-5 21-6-3-12-9-16-17-10 3-35 0-39-2-10-4-29-18-28-21 2-3 4 2 10 4 4 2 15 2 19 0 7-2 14-7 18-13-1-4-3-15-2-22-5-6-13-11-21-12-12-1-19 14-22 23-5 17-5 30 0 45 11 4 18 11 27 20 10 10 16 18 21 31 1 2 5 17 2 19-5 4-30-21-33-25-18-19-30-47-33-73-1-4 0-9 1-14-4-5-20-28-18-13 2 12 8 26 16 36-1 3-7 0-11-4-4-5-11-13-13-21-1-10-12-22-19-19-4 2 2 24 4 30 3 6 7 11 11 17 4 5-8-3-10-5 0 0-1-1-1-1 0-1 0-1 0-1-6-6-11-13-20-18 4 9 8 19 8 29 0 0-2 3-4 2-2-1-13-6-15-8-19-12-26-19-34-32 7 23 3 46-4 73-7 22-18 40-26 61-8 21-9 43-5 65 4 26 15 45 32 65 5 5 10 10 15 14 7 7 9 11 11 2 2-8 2-19 2-28-1-40-17-80-55-97-4-1-1-3 1-2 54 24 75 84 62 144 0 1-5-1-5-1-24-11-44-38-58-60-15-25-22-61-16-89 7-35 31-63 39-98 8-35 4-68-24-93-3-3-8-6-12-10-12 6-24 9-38 5-17-4-38-14-43-33-6-22 32-10 37-7 13 6 26 14 39 23 17-10 30-19 51-22 39-6 81 5 116 20 18 8 37 18 56 24 18 6 37 7 55 7 41 0 82-6 116-29 3-2 13 2 12 3-46 31-139 40-192 20-38-15-70-37-120-36-31 0-52 2-78 19-2 1-4 2-6 3 9 7 16 16 23 24 1 2 2 3 3 5-3-7-11-23-1-25 11-1 21 9 27 16 10 10 17 22 27 38 6 4 11 9 16 14-8-17-17-41 3-36 6 1 11 5 16 9-1-4 0-7 2-7 6 0 14 6 18 10 4 3 8 6 11 10 3-7 6-14 9-20 11-17 36-10 47 8 0 1 1 2 1 3 0-2 1-2 1-3 3-4 0-11 9-6 12 7 21 22 26 37 1 0 2 1 3 2 4 4 8 7 10 11-4-9-13-24-11-34 2-7 20 7 22 8 2 2 4 4 7 7-3-6-3-11 4-10 8 1 16 9 23 16 1-4 2-7 4-10 5-7 13 0 18 4 2 2 5 5 7 7-1-2-1-3-2-4-1-3-3-10 2-10 1 0 11 5 11 4-1-2-1-4 0-5 1-1 3 1 3 2 3 2 5 4 7 7 5 5 10 11 16 16 2 1 22 13 17 1-4-11-9-17-13-28-5-16-2-27 13-27 14 0 23 9 34 16 1 2 10 9 6 8m-502-86c-4 13 30 24 40 25 9 2 19 2 27-2-7-5-14-10-20-14-22-12-44-19-47-9m150 77c-6-10-11-18-18-27-8-10-16-12-14 1 2 19 7 30 17 43 5 6 11 12 17 15-1 0-2-2-3-3-3-4-16-22-12-28 2-4 7-3 13 0 0 0 0-1 0-1m4 9c-4-1-8 0-6 7 2 6 11 20 14 20 1-4 0-11-8-27m125 107c6 1-2-22-8-31-6-9-17-18-28-23 0 2 1 3 1 5 4 11 25 48 35 49m-44-60c0 0 0 0-1 0z m82-5c2-2 0-11-1-17-2 1-3 3-4 6-1 5 2 13 5 11m-41-4c-4 1 20 5 21-1 1 1-3-5-5-8 0 1-1 1-1 2-2 1-10 6-15 7m28-40c-7-15-8 1-7 7 0 6 1 14 3 21 0 0 0 0 0-1 1-10 6-12 12-11-2-5-5-9-8-16m-147 212l0-1c1 0 2 0 2 0 1 0 1-1 2-2 0 0 0-1 0-2 0-1 0-2 0-4l0-19c0-2 0-4 0-5 0-1 0-1 0-2-1-1-1-1-2-2 0 0-1 0-2 0l0-1 13 0 0 1c-1 0-2 0-3 1 0 0-1 1-1 2 0 0 0 1 0 3l0 8c0 8 2 12 7 12 2 0 3 0 4-2 1 0 1-1 2-2 0-1 0-2 0-4l0-10c0-2 0-3 0-4 0-1-1-2-1-3 0 0-1-1-1-1-1 0-2 0-3 0l0-1 14 0 0 1c-2 0-3 0-4 1 0 0 0 1 0 2-1 0-1 1-1 3l0 12c0 2 0 4 0 5-1 1-1 2-3 3-1 1-3 1-5 1-2 0-4 0-5-1-1 0-2-1-2-1-1-1-1-1-2-2l0 17c0 0-4-2-9-3m45-37c-1 0-2 1-3 1 0 1 0 1-1 2 0 1 0 2 0 3l0 9c0 3 1 4 1 6 1 2 2 3 3 3 2 0 2-1 2-2 1-1 2-1 2-1 1 0 2 0 2 1 1 1 1 1 1 2 0 1 0 1-1 2-1 1-2 1-3 1-2 0-7-3-7-4 0 1 0 2 0 5l-8-4 0-1c1 0 1 0 2 0 0 0 1-1 1-1 0-1 1-2 1-4l0-9c0-2 0-3 0-4-1-1-1-2-1-3 0 0-1-1-1-1-1-1-1-1-3-1l0-1 13 0z m15 34c0 0 1 0 2 1 0 0 0 1 0 2 0 1 0 1-1 2 0 0-1 1-1 1-1 0-2-1-2-1-1-1-1-1-1-2 0-1 0-2 0-2 1-1 2-1 3-1m6-34c-1 0-2 0-3 1 0 1-1 1-1 2 0 1 0 2 0 3l0 21-8-3c1-1 1-1 2-1 0 0 1-1 1-1 0-1 0-1 0-2 0-1 0-3 0-5l0-6c0-2 0-4 0-5 0-1 0-1 0-2 0-1-1-1-1-2-1 0-2 0-3 0l0-1 13 0z m48 34c1 0 1 0 2 1 0 0 0 1 0 2 0 1 0 1 0 2-1 0-1 1-2 1-1 0-2-1-2-1-1-1-1-1-1-2 0-1 0-2 1-2 0-1 1-1 2-1m6-34c-1 0-2 0-3 1 0 1-1 1-1 2 0 1 0 2 0 3l0 21-8-3c1-1 1-1 2-1 0 0 1-1 1-1 0-1 0-1 0-2 1-1 1-3 1-5l0-6c0-2 0-4-1-5 0-1 0-1 0-2 0-1-1-1-1-2-1 0-2 0-3 0l0-1 13 0z m-49 0c1 0 1 0 1 0 0 0 1 0 2-1 1 0 2-1 4-1 2 0 4 1 6 3 1 2 2 3 2 6 0 2-1 3-2 5-1 1-2 2-4 3l-3 2c-2 0-3 1-3 2-1 1-1 2-1 3 0 1 0 2 1 3 1 1 2 2 3 2 1 0 1-1 2-1 1-1 2-1 2-2 1-1 1-1 1-2 0-1 1-1 1-2l1 0-1 7c-1-1-1-1-1-1-1 0-1 0-1 0l-1 1c-1 0-2 0-3 0-2 0-4 0-6-2-1-2-1-3-1-5 0-2 0-4 1-5 1-1 3-2 6-4 1-1 2-1 3-2 0 0 1-1 1-1 1-1 1-2 1-4 0-1 0-3-1-4-1-1-2-1-4-1-2 0-3 1-5 4-1 1-1 3-2 5l-1 0 0-9 1 0c0 1 1 1 1 1m21 6c0-2 0-3 1-4 0-1 0-2 1-2 1-1 3-2 5-2 2 0 3 1 4 1 2 1 2 2 3 3l0 1c-1-1-2-2-2-3-1 0-2 0-2 0-1 0-2 0-2 0-1 0-2 1-2 2-1 1-1 2-1 4l0 19 8 0 0 2-8 0 0 8-1 0 0-1c-1-1-1-2-2-3 0-1 0-2-1-2-1-2-2-3-4-3l0-1 3 0z m45 10c0-1-1-1-2-2-1 0-2 0-4-1-1 0-2-1-3-1-1 0-2-1-3-2-1-1-1-3-1-5 0-2 0-4 1-5 2-1 4-1 7-1 3 0 6 2 7 3 1-1 2-3 5-3 3 0 3 3 3 3-1 0-1-1-2-1-1 0-2 1-2 3l0 15c0 2 0 9-9 9-4 0-7-3-8-4-1-1-1-3-1-4 0-1 0-1 0-2 1 0 1 0 2 0 1 0 2 1 2 1 0 1 0 2-1 2 0 1 1 2 1 2 0 1 2 3 5 3 3 0 5-3 5-6 0-1 0-2 0-3-1 0-1-1-2-1m2-1l0-5c0-3 0-4 0-5-1-3-6-5-7-5-1 0-2 1-3 2-1 1-1 2-1 3 0 2 0 3 1 4 1 1 1 1 2 2 1 0 2 1 4 2 1 0 3 1 4 2m24-15c-1 0-2 0-3 1 0 1-1 1-1 2 0 1 0 2 0 3l0 9c0 3 0 4 0 6 0 1 1 2 1 3 1 0 2 1 3 1 1 1 2 1 3 1 1 0 2 0 2 0 1-1 2-1 2-2 1-1 1-2 1-3 0-1 0-3 0-5l0-7c0-2 0-3 0-4 0-1 0-2 0-3 0 0-1-1-1-1-1-1-2-1-3-1l0-1 13 0 0 1c-1 0-2 1-3 1 0 1-1 1-1 2 0 1 0 2 0 3l0 14c0 3-1 4-2 6-2 1-4 2-6 2-4 0-7-2-9-4 0 1 0 2-1 4l-8-4 0-1c1 0 2 0 2 0 1-1 1-1 1-2 1 0 1-1 1-2 0-1 0-2 0-5l0-5c0-2 0-3 0-4 0-1 0-2 0-3-1 0-1-1-2-1 0-1-1-1-2-1l0-1 13 0z"/>
<glyph glyph-name="i74" unicode="&#57416;" d="M246 133l30 0 0-31-30 0z m0 282l30 0 0-220-30 0z"/>
<glyph glyph-name="i75" unicode="&#57417;" d="M254 280l-120 119-21-21 119-120-119-120 21-21 120 120 120-120 21 21-120 120 120 120-21 21z"/>
<glyph glyph-name="i72" unicode="&#57414;" d="M242 212l-159 158-22-22 181-180 260 261-22 22z"/>
<glyph glyph-name="i73" unicode="&#57415;" d="M246 133l30 0 0-31-30 0z m0 62c0 2 0 48 35 79 30 28 38 37 38 64 0 11-3 47-44 47-29 0-42-20-43-21l-27 14c1 1 21 37 69 37 45 0 75-31 75-78 0-41-18-57-49-86-24-22-24-56-24-56z"/>
<glyph glyph-name="i76" unicode="&#57424;" d="M363 346c-46 21-86-6-106-24-17 18-59 45-105 24-41-18-78-86-149-98 0 0 134-86 153-94 11-4 58-23 101 9 47-32 91-13 102-9 18 8 153 94 153 94-71 12-109 80-149 98z m-107-111c-54 0-157 25-157 25l315 0c0 0-103-25-158-25z"/>
<glyph glyph-name="i77" unicode="&#57418;" d="M467 359c0-1 0-3 0-4 0-11 0-22 1-33-1-1 0-3 0-4l0-34c0-9 0-19-1-28 0-5 0-10 0-15 0-21 0-42 0-63 0-2 0-4 1-6l0-40c0-2-1-5-1-7 0-10 0-19 0-29 0-9-1-18-1-26-1-4-1-9-1-13-1-6-1-11-2-17 0-3-1-6-2-9 0-3-2-5-5-6 0 0-1 0-1 0 0 0 0 0-1 0-2 0-3 0-5 0-1 0-2 0-3 0-1 0-1 0-1 0-5-1-11-1-17-1-9 0-17 0-26 0-1-6-3-13-4-19-1-1-2-3-4-3-3 0-6 0-8 0-2 1-4 2-4 4-1 5-3 12-4 18-4 0-7 0-11 0-16 0-33 0-49 0-28 0-55 1-83 1-15 0-31 0-46 0-20 0-40 0-60 0-2-5-3-13-5-20 0-1-2-3-4-3-2 0-5 0-8 0-1 1-3 2-3 4-2 6-3 12-5 19-1 0-3 0-4 0-8 0-17 0-25 1-8 0-16 0-25 0-2 0-3 1-4 4 0 1 0 2 0 3-1 5-2 9-2 14-1 11-1 22-1 33 0 2 0 3 0 4l0 34c0 10 0 19 0 29 0 5 1 10 1 15 0 21-1 42-1 62 0 2 0 5 0 7l0 39c0 3 0 5 0 7 1 10 1 20 1 29 0 9 1 18 1 26 0 5 1 9 1 14 1 5 1 11 2 16 0 4 1 7 1 10 1 3 3 4 5 5 1 0 2 0 2 0 2 1 4 1 6 1 1 0 2 0 3 0 6 0 12 0 18 0 20 0 41 0 61 0 7 0 14 0 21 0 0 6 0 12 0 17 2 18 4 35 11 51 5 14 12 26 21 37 11 12 24 21 40 24 4 1 9 2 14 2 0 0 1 0 1 0 2 1 5 1 7 1 1 0 3 0 4 0 17-2 32-8 45-19 13-12 23-25 30-41 6-12 10-26 13-40 2-8 3-17 4-25 0-3 0-5 0-8 19 0 37 0 56 0 8 0 17 0 25 0 2 0 4 0 6-1 3 1 6 1 10 1 2 0 5 0 7-1 3-1 6-2 7-5 1-3 1-6 1-9 0-1 0-2 0-3z m-124 18c-1 7-1 14-2 21-1 10-3 19-6 29-5 15-12 29-22 42-10 11-21 20-36 25-9 3-18 4-28 3-5 0-10-1-15-3-3-1-6-3-9-5-2-1-3-2-5-3-6-3-12-8-16-14-7-7-11-15-15-24-3-10-6-20-9-30 0-3-1-6-1-9 0-5-1-9-2-14 0-4 0-7 0-11l0-6c5 0 10 0 16 0 27 0 55 0 83 0 15 0 30-1 46-1 7 0 14 0 21 0z"/>
<glyph glyph-name="i78" unicode="&#57419;" d="M494 149c-8 6-41 28-81 55-4 3-17 12-18 13-9 5-17 8-26 8-20 0-31-12-37-28-5-8-11-17-16-23-2-2-3-3 1-3l0-18 9 15c-7 4-42 38-81 77-14 14-20 20-28 29-2 1-2 1-3 3-26 26-43 44-45 49l-16-9 18 0 0 2-18 0 17-7c0 2 14 13 29 21 12 6 21 16 25 28 3 12 0 23-9 35 5-7-7 10-11 16-4 7-10 15-20 31-1 0-1 0-1 1-20 30-30 44-34 50-11 12-18 18-33 18-4 0-7-1-11-2-2 0-7-2-8-2l-4-1c-19-6-32-15-53-35-43-44-53-92-21-169 15-34 40-72 71-110 19-23 36-42 49-54 11-12 31-30 54-49 39-32 76-57 109-71 29-13 55-19 79-19 38 0 65 15 90 40 20 20 28 34 34 53l1 3c10 20 9 36-12 53z m-23-29c6-4 5-2 1-10l-2-5c-4-15-9-23-26-39-18-19-37-29-63-29-18 0-39 5-64 15-30 13-65 37-101 66-22 19-41 36-51 47-12 12-28 29-47 51-29 36-52 71-65 101-27 63-20 96 13 129 16 17 25 22 38 26l3 1c1 0 6 2 7 2 2 0 2 0 2 0 0 0 1 0 4-4 4-4 14-20 33-48 11-16 16-24 21-30 2-4 4-8 7-12 1-2 4-6 5-7 2-3 3-4 3-3-1-2-3-4-7-6-23-12-42-27-47-40l-1-6 0-7 3-4c4-9 21-26 51-57 1-2 1-2 3-3 8-9 15-15 28-29 45-45 78-76 88-82l5-3 5 0c16 0 32 19 48 48 2 5 3 7 4 7 1 0 3-1 5-2 1-1 14-10 18-13 39-26 72-49 79-54z"/>
<glyph glyph-name="i79" unicode="&#57420;" d="M54 195c-35 35-54 82-54 131 0 50 19 97 54 132 35 35 82 54 131 54 50 0 96-19 131-54 69-69 73-177 14-247-2-2 127-129 179-179 4-5 5-17-4-26-9-8-22-7-26-3-7 6-177 178-179 176-34-28-71-38-115-38-49 0-96 19-131 54z m131 284c-40 0-79-16-107-45-29-29-45-67-45-108 0-40 16-78 45-107 28-29 67-45 107-45 41 0 79 16 108 45 59 59 59 156 0 215-29 29-67 45-108 45z"/>
<glyph glyph-name="i80" unicode="&#57421;" d="M360 495c-45 0-87-20-115-55l22 0c-28 35-70 55-115 55-84 0-152-70-152-157 0-41 15-80 43-109l171-193c11-12 26-19 42-19 16 0 31 7 42 19l171 193c28 29 43 68 43 109 0 87-68 157-152 157z m0-31c67 0 122-56 122-126 0-33-12-64-35-88l-172-193c-5-6-12-9-19-9-7 0-14 3-20 9l-171 193c-23 24-35 55-35 88 0 70 55 126 122 126 36 0 69-16 93-44l11-13 11 13c24 28 57 44 93 44z"/>
<glyph glyph-name="i81" unicode="&#57422;" d="M257 0l-132 0c-36 0-64 16-83 48-7 12-9 26-12 40-4 38-8 77-13 114-4 40-9 81-13 121l-4 28c-1 9 4 16 15 16 23 1 48 3 71 4 25 1 48 3 72 4 4 1 4 3 4 5 5 20 7 42 13 62 4 12 9 24 14 35 9 17 25 28 44 32 17 4 33 4 48 0 24-5 38-21 47-43 9-20 15-40 18-61 2-9 3-17 4-25 0-4 2-5 6-5 37-3 76-4 115-7 8-1 17-1 26-1 11 0 16-7 15-17-4-41-9-81-13-121-5-43-11-86-16-129-1-12-2-25-6-36-13-39-49-64-89-64z m-217 225c4-35 15-130 18-143 6-34 32-52 66-52 88 0 148-1 276-1 24 0 50 26 54 56 3 20 15 115 34 255-126-4-14 0-131-4 1-7 1-11 2-16 0-3 2-5 4-7 8-6 11-18 4-28-6-8-18-10-27-4-9 7-10 19-4 28 1 2 1 3 1 4 0 7-1 14-2 22-52-7-104-7-158 0 0-8-1-14-2-20 0-2 1-3 1-4 4-6 5-11 4-16-1-10-8-16-17-18-9 0-17 4-20 14-4 8-1 17 7 22 1 2 3 3 3 6 1 5 2 10 2 17-112 4-12 0-126 4 0 0 7-81 11-115z m288 154c-4 26-8 54-21 78-2 6-6 12-11 17-26 27-73 18-91-16-8-16-12-33-16-49-1-11-4-21-5-30z"/>
<glyph glyph-name="i82" unicode="&#57423;" d="M511 282c-9 31-13 39-15 58-1 10-20 6-20 6l-14-6c0 0-1 10-4 14-3 4-16 0-16 0 0 0-52-18-79-25-29-8-63-22-91-30-29-9-113-36-161-16-16-6-30-11-30-11l-7 5c0 0-3 2-3 0-1-1-1-8-1-8l-23-10-4 4-2 0-1-1-2-9-4-1-8 7-2-2-1-7-6 3-1-1 0-3-5 1 0-5-5 2c0 0-2 0-3-1 0-3 1-8 1-8l2-2c0 0-5-6-2-13 10-3 10-8 131-14 0-3-1-8-1-8l-6 1 0-6-7 0 0-1 4-7 3 0c0 0-3-10 1-13 5-3 57-16 191-7 37 1 63 14 63 14 0 0 31 20 62 28 7 0 7 3 27-5 10-2 14 0 14 0 0 0 15 4 15 13 0-2 18 32 10 64z m-383-6c65-11 178 30 225 45 47 16 17 6 94 30 4 3 8 2 8 2 0 0 0-3-3-3-59-30-152-68-220-81-68-13-104 7-104 7z m363 58c-22-28-59-62-59-62 0 0-35-33-88-46-52-11-112 17-112 17 0 0 40 12 112 40 67 34 127 53 132 55 6 3 13 2 13 2 0 0 6 0 2-6z"/>
<glyph glyph-name="i83" unicode="&#57425;" d="M498 368c-4 7-19 40-23 54-6 14-23 3-23 3l-9-7-8 11c0 0-24-7-89-75-22-25-17-22-33-38-18-17-43-52-49-60-5-8-37-54-79-57-41-3-51 3-69 13-23-7-88-32-108-49-14-11-4-20-4-20l-3-3c0 0 6-7 83-10l-11-12c0 0-11-13-1-25-6-3-1-3-1-3 0 0 11-7 99-7 89 0 146 4 176 15 14 4 19 14 19 14 0 0 31 69 58 107-4-40-4-64-6-82 9 0 16 0 16 0 0 0 4 89 13 107 5-10 11-5 8-122 4-3 11-3 11-3l8 0c0 0-3 137 29 169 17 23 0 72-4 80z m-344-172c44-1 54 6 72 17 18 11 44 46 55 61 11 15 46 53 48 55 3 4 35 39 49 53 14 14 34 30 36 30 1 2 3-1 3-1 0 0-36-39-64-64-28-25-64-73-73-87-10-14-43-59-72-66-27-7-54 2-54 2z m311 222c-14-17-53-108-61-136-7-27-32-77-32-77 0 0-22-46-69-49-47-2-100 23-100 23 0 0 39 11 67 48 28 37 57 77 79 98 23 20 47 46 59 58 13 14 32 31 42 38 9 7 14 4 14 4 0 0 5-2 1-7z"/>
<glyph glyph-name="i84" unicode="&#57426;" d="M508 360c0 0-4 26-24 62-8 11-11 22-11 22 0 0-4 13-14 13-9 0-11-5-26-16-3 3-5 10-12 14-11-8-31-29-47-51-17-21-24-36-52-69-26-33-44-71-62-96-19-26-57-72-120-54-7 2-15 2-22-2-7-3-70-24-101-39-17-10-7-21-7-21l-2-1c0 0 10-9 97-10-16-11-26-18-36-26-9-9-1-20-1-20 0 0-3-2 1-4 4-1 24-5 94-4 71 2 173 8 173 8 0 0 53 3 58 50 9 39 11 68 31 107 0-72-2-104-2-104l13 0c0 0 0 116 5 131 6 5 5 6 9 6 2-10 7-18 7-71 0-52 0-84 0-84l15 0 0 98c0 0 0 56 22 96 18 32 14 65 14 65z m-346-183c0 0 43-3 76 32 33 35 47 65 71 101 23 36 27 33 56 75 29 41 43 54 43 54 0 0-23-39-48-74-25-34-65-97-78-115-12-19-32-42-56-62-27-18-64-11-64-11z m297 266c-4-17-8-24-19-65-23-80-39-110-53-150-15-40-38-67-38-67 0 0-27-32-75-31-48 1-84 18-90 22 29 10 47 14 69 40 22 27 32 34 54 78 22 44 39 62 57 83 18 21 37 41 48 57 11 15 29 31 35 37 7 5 10 4 12 4 2 0 2-3 0-8z"/>
<glyph glyph-name="i85" unicode="&#57427;" d="M498 411c0 0-20 38-40 67-6 10-19 3-19 3l-15-12-13 13c0 0-7 0-21-17-15-17-46-55-69-117-22-61-22-51-41-112-18-61-42-68-67-68-24 0-52 3-71 8-31-12-131-54-131-54 0 0-12-5-10-20-2-2 0-2 0-2 0 0 3-6 100-15l-17-15c0 0-11-10-7-22-3-2 0-2 0-2 0 0 10-10 64-10 54 0 136-2 195 5 58 7 65 40 65 40 0 0 6 19 9 34 2 16 15 84 22 100 0-23 2-120 2-120l11 0c0 0 0 134 4 157 5-13 8-36 8-84 0-49 0-90 0-90l14-1 3 105c0 0-2 92 24 137 27 47 0 92 0 92z m-50 43c-26-64-18-100-31-164-13-64-17-80-29-124-4-10-7-58-77-47-75 10-108 27-108 27-11 8 9 8 13 8 27 0 54 25 67 61 11 35 30 105 70 169 38 63 67 78 77 88 9 10 18 9 18 9 0 0 10-6 0-27z"/>
<glyph glyph-name="i86" unicode="&#57428;" d="M0 422l50 0 0-39-50 0z m0-159l50 0 0-39-50 0z m0-158l50 0 0-40-50 0z m123 317l361 0 0-39-361 0z m0-159l361 0 0-39-361 0z m0-158l361 0 0-40-361 0z"/>
<glyph glyph-name="i87" unicode="&#57429;" d="M473 49l-434 0 0-10 10 0 0 6c0 78 11 121 29 130 5 2 10 5 23 13 43 25 69 37 102 46l17 5-13 12c-25 24-42 67-42 108 0 61 38 104 91 104 53 0 91-44 91-105 0-40-16-82-41-106l-13-13 17-4c25-6 51-16 76-29 17-8 29-16 48-28 10-6 18-31 23-66 4-24 5-49 6-67l0-6 19 1 0 5c0 19-2 44-5 69-6 42-16 70-33 81-19 12-32 20-49 29-27 14-53 24-80 30l4-17c30 29 48 75 48 121 0 72-47 124-111 124-64 0-111-52-111-123 0-46 19-94 49-123l4 17c-35-9-62-22-107-48-12-7-17-10-22-13-28-13-39-61-39-147l0-15 443 0z"/>
<glyph glyph-name="i88" unicode="&#57430;" d="M245 430l200 0 0-22-200 0z m-245 0l114 0 0-22-114 0z m0-311l174 0 0-23-174 0z m289 0l145 0 0-23-145 0z m-289 155l372 0 0-22-372 0z m189 67c-43 0-78 35-78 78 0 43 35 78 78 78 44 0 78-35 78-78 0-43-34-78-78-78z m0 134c-31 0-55-25-55-56 0-31 24-56 55-56 32 0 56 25 56 56 0 31-24 56-56 56z m245-290c-43 0-78 35-78 78 0 43 35 78 78 78 43 0 78-35 78-78 0-43-37-78-78-78z m0 134c-31 0-56-24-56-56 0-31 25-55 56-55 31 0 56 24 56 55 0 32-28 56-56 56z m-200-290c-44 0-78 35-78 78 0 44 34 78 78 78 43 0 78-34 78-78 0-43-35-78-78-78z m0 134c-32 0-56-24-56-56 0-31 24-55 56-55 31 0 55 24 55 55 0 32-24 56-55 56z"/>
<glyph glyph-name="i89" unicode="&#57431;" d="M436 447c-11 8-26 9-40 5l-70-21c-16-5-42-2-56 6l-43 24c-22 13-58 16-82 8l-54-19 0 47c0 8-7 15-16 15-9 0-16-7-16-15l0-482c0-8 7-15 16-15 9 0 16 7 16 15l0 168 65 23c15 6 41 3 55-5l42-24c15-8 36-13 55-13 10 0 20 1 28 4l69 21c27 8 48 35 48 62l0 162c0 14-6 27-17 34z m-15-196c0-14-12-29-25-34l-70-21c-16-5-42-2-56 6l-43 25c-22 12-58 16-82 7l-54-19 0 203 65 23c15 5 41 3 55-5l42-24c22-13 59-17 83-10l69 22c5 1 9 1 12-1 3-2 4-5 4-10z"/>
<glyph glyph-name="i90" unicode="&#57432;" d="M256 512c-141 0-256-115-256-256 0-141 115-256 256-256 146 0 256 110 256 256 0 141-115 256-256 256z m127-279c-12 7-24 11-35 11-19 0-32-10-42-17-4-3-9-7-11-7 0 0 0 0-1 1-7 8-1 18 12 38 10 14 21 30 21 47 0 10-4 23-8 36-4 15-12 44-5 48 3 3 5 3 9 3 14 0 30-15 38-23 4-3 8-8 13-14 23-25 42-44 59-45l1 0c22 0 35 16 42 29 6-11 13-36 13-87 0-51-13-82-18-95-8 3-21 6-29 6-4 0-6 0-8-1-9-3-14-8-20-12-4-3-9-7-11-7l-1 1c-5 4-4 17-3 30 2 20 5 45-16 58z m-233-65c1-24-1-32-11-34l-1 0c-15 0-38 45-44 61-2 5 1 16 3 24 4 17 8 34-3 44-3 3-7 5-13 5-9 0-20-4-32-10-10-4-22-9-28-9-1 27 12 86 28 105 2 2 5 2 7 2 11 0 27-8 34-10 6-3 10-8 14-15 5-8 11-17 23-21 7-2 19 0 30 2 9 2 19 4 27 4 5 0 10-1 14-2 1 0 6-6 10-21 6-22 6-46 2-53-4-6-13-10-23-15-13-5-24-10-32-21-6-9-6-22-5-36z m106-148c-122 0-222 92-235 210 9 0 22 5 35 10 9 4 20 8 25 8 1-5-1-18-3-25-3-12-6-25-3-35 0 0 28-74 63-74 2 0 3 1 5 1 29 5 28 35 27 54 0 10 0 21 2 25 4 6 14 10 23 14 13 6 26 11 32 23 10 16 4 56-3 77-5 15-11 22-19 26-7 2-13 3-21 3-10 0-22-2-31-4-7-1-13-3-17-3l-3 0c-5 2-8 6-13 14-5 7-10 16-22 21-13 5-29 12-43 12l-2 0c42 69 117 115 203 115 90 0 169-51 209-125l-2-6c0-1-7-31-29-31-10 1-34 27-45 39-6 6-10 11-14 15-11 10-31 29-52 29-8 0-15-3-21-7-17-13-9-42-1-69 3-11 6-24 6-30 0-11-8-24-17-37-12-18-27-41-10-61 4-6 10-8 16-8 7 0 15 5 22 10 8 7 18 13 30 13 8 0 16-3 25-8 10-6 9-19 7-39-2-18-3-37 10-48 4-3 8-5 14-5 9 0 16 6 23 11 4 4 9 8 13 9l2 0c6 0 16-2 23-4-37-69-107-120-209-120z"/>
<glyph glyph-name="i91" unicode="&#57433;" d="M62 512c-3 0-6-3-6-6l0-101-31 0c-5 0-7-3-7-6 0-3 3-6 7-6l31 0 0-131-31 0c-5 0-7-3-7-6 0-3 3-6 7-6l31 0 0-131-31 0c-5 0-7-3-7-6 0-3 3-6 7-6l31 0 0-101c0-3 3-6 6-6l425 0c4 0 7 3 7 6l0 500c0 3-3 6-7 6z m6-12l413 0 0-488-413 0 0 95 38 0c3-13 16-24 31-24 17 0 31 14 31 30 0 16-14 30-31 30-15 0-28-10-31-24l-38 0 0 131 38 0c3-13 16-24 31-24 17 0 31 14 31 30 0 16-14 30-31 30-15 0-28-11-31-24l-38 0 0 131 38 0c3-14 16-24 31-24 17 0 31 14 31 30 0 16-14 30-31 30-15 0-28-11-31-24l-38 0z m69-83c11 0 19-8 19-18 0-10-8-18-19-18-10 0-19 8-19 18 0 10 9 18 19 18z m0-143c11 0 19-8 19-18 0-10-8-18-19-18-10 0-19 8-19 18 0 10 9 18 19 18z m0-143c11 0 19-8 19-18 0-10-8-18-19-18-10 0-19 8-19 18 0 10 9 18 19 18z"/>
<glyph glyph-name="i92" unicode="&#57434;" d="M511 150c0 0 0 0 0-1 0-6-6-12-12-12 0 0-109 1-109 1-7 0-12 5-12 11 0 7 5 12 12 12l97 0c0 4 1 8 1 12 0 124-104 225-232 225-128 0-232-101-232-225 0-4 1-8 1-12l97 0c7 0 12-5 12-12 0-6-5-11-12-11 0 0-109-1-109-1-6 0-12 6-12 12 0 1 0 1 0 1-1 8-1 15-1 23 0 137 115 249 256 249 141 0 256-112 256-249 0-8 0-15-1-23z m-334 140c5 3 11 2 15-2l-1 1c107-76 129-111 129-111 18-28 7-64-23-80-30-16-69-6-86 22-1 0-22 35-40 159l0-1c-1 4 1 9 6 12z m56-159c6-11 19-17 33-17 6 0 13 1 18 4 9 5 16 13 18 22 3 9 1 18-4 26 0 0-19 28-98 87 16-93 33-122 33-122z"/>
<glyph glyph-name="i93" unicode="&#57435;" d="M428 418l-357 0-71-70 0-244 499 0 0 244z m46-70l-215 0 0 52 162 0z m-395 52l162 0 0-52-216 0z m-61-279l0 209 463 0 0-35-178 0 0-104 178 0 0-70z m463 157l0-70-160 0 0 70z"/>
<glyph glyph-name="i94" unicode="&#57436;" d="M465 415l-432 0c-17 0-30-12-30-28l0-268c0-15 13-27 30-27l432 0c17 0 30 12 30 27l0 268c0 15-13 28-30 28z m6-296c0-2-3-5-6-5l-432 0c-3 0-6 3-6 5l0 268c0 3 3 6 6 6l432 0c3 0 6-3 6-6z m-149 143l100 76c5 4 6 11 2 16-5 5-12 5-17 1l-158-120-158 120c-5 4-12 4-17-1-4-5-3-12 2-16l100-76-97-91c-5-4-5-11 0-16 2-2 5-3 8-3 3 0 6 1 9 3l99 93 47-36c2-2 5-3 8-3 3 0 5 1 7 3l48 36 103-98c3-2 6-3 8-3 3 0 6 1 9 3 4 5 4 12 0 16z"/>
<glyph glyph-name="i95" unicode="&#57437;" d="M256 264c68 0 123 55 123 122 0 66-55 121-123 121-68 0-123-55-123-121 0-67 55-122 123-122z m0 197c42 0 77-34 77-75 0-42-35-76-77-76-42 0-76 34-76 76 0 41 34 75 76 75z m0-224c-130 0-235-104-235-232l470 0c0 128-105 232-235 232z m0-45c88 0 162-60 183-141l-366 0c21 81 95 141 183 141z"/>
<glyph glyph-name="i96" unicode="&#57438;" d="M243 511c-66 0-74 0-100-1-26-2-43-6-59-12-16-6-29-14-43-28-13-13-22-27-28-43-6-15-10-33-11-59-1-26-2-34-2-100 0-66 1-75 2-101 1-25 5-43 11-59 6-16 15-29 28-43 14-13 27-21 43-28 16-6 33-10 59-11 26-1 34-1 100-1 66 0 74 0 100 1 26 1 43 5 59 11 16 7 29 15 43 28 13 14 21 27 28 43 6 16 10 34 11 59 1 26 1 35 1 101 0 66 0 74-1 100-1 26-5 44-11 59-7 16-15 30-28 43-14 14-27 22-43 28-16 6-33 10-59 12-26 1-34 1-100 1m0-44c65 0 72 0 98-1 24-1 36-5 45-9 11-4 19-9 28-18 8-8 14-16 18-28 3-8 7-21 8-45 1-26 2-33 2-98 0-65-1-73-2-99-1-23-5-36-8-45-4-11-10-19-18-28-9-8-17-13-28-18-9-3-21-7-45-8-26-1-33-2-98-2-65 0-72 1-98 2-24 1-37 5-45 8-11 5-19 10-28 18-8 9-14 17-18 28-3 9-7 22-8 45-2 26-2 34-2 99 0 65 0 72 2 98 1 24 5 37 8 45 4 12 10 20 18 28 9 9 17 14 28 18 8 4 21 8 45 9 26 1 33 1 98 1m13-280c-45 0-81 36-81 81 0 45 36 81 81 81 45 0 81-36 81-81 0-45-36-81-81-81m0 206c-69 0-125-56-125-125 0-69 56-125 125-125 69 0 124 56 124 125 0 69-55 125-124 125m158 5c0-16-13-30-29-30-16 0-29 14-29 30 0 16 13 29 29 29 16 0 29-13 29-29"/>
<glyph glyph-name="i97" unicode="&#57439;" d="M230 184l55 0c0 11 2 20 4 26 4 16 14 29 28 40l22 17c21 16 35 29 42 39 12 16 18 36 18 60 0 39-13 67-40 87-29 20-65 31-108 31-32 0-60-8-82-22-31-20-49-52-54-98l61 0c2 15 8 29 16 43 13 20 34 30 63 30 29 0 50-8 62-25 11-16 16-33 16-51 0-17-5-32-15-46-5-7-12-15-21-21l-22-18c-25-19-34-32-37-39-3-7-6-22-8-53z m82-28l-112 0 1 14c1 37 5 62 11 77 6 16 21 33 45 52l23 17c6 5 11 10 15 15 7 10 10 19 10 30 0 13-4 24-11 34-7 9-20 14-39 14-19 0-31-6-39-18-8-13-12-27-12-41l0-15-119 0 1 15c3 64 25 109 68 136 26 17 59 26 97 26 49 0 91-12 124-36 35-25 52-62 52-110 0-30-7-56-22-76-9-12-25-27-48-46l-22-17c-10-7-16-15-19-25-2-5-3-14-4-32z m-85-103l64 0 0 60-64 0z m-28-29l120 0 0 118-120 0z"/>
<glyph glyph-name="i98" unicode="&#57440;" d="M256 512c-141 0-256-115-256-256 0-141 115-256 256-256 141 0 256 115 256 256 0 141-115 256-256 256z m98-273l-77 0 0-77c0-10-8-18-17-18-5 0-9 2-12 5-3 4-5 8-5 13l0 77-78 0c-4 0-9 2-12 5-3 3-5 7-5 12 0 9 8 17 17 17l78 0 0 77c0 10 7 18 17 18 9 0 17-8 17-18l0-77 77 0c10 0 17-8 17-17 0-9-7-17-17-17z"/>
<glyph glyph-name="i99" unicode="&#57441;" d="M270 231c-2-2-2-4-3-8-5-13-5-22-5-22l0-65c0 0 1-7-6-8-5 0-7 6-7 6l0 71c0 0-1 14-6 22-3 7-3 6-4 11 0 7 3 6 5 11 5 10 5 18 5 18 0 0 1 7 7 7 6 0 6-7 6-7 0 0 1-14 5-18 5-7 6-8 6-11-1-3 0-3-3-7m86-29c-2 13-6 23-6 23 0 0-2 6-2 11 0 4 2 12 2 12 0 0 7 21 6 34 1 21-4 46-4 46 0 0-5 18-5 21 0 5-1 21-1 24 2 6-6 7-6 7l-8 1 0 6c0 0 8 0 9 1 1 0 7-1 6 5 0-1-2 26-2 37 0 2 0 65 0 65 0 0 0 5-4 5-7 0-170 0-170 0 0 0-4 1-4-4 0-4-2-48-2-48l-3-56c0 0-1-4 6-5 5 0 5 0 5 0l0-6-5-1c0 0-5-1-4-6-1-9-3-30-3-30 0 0-5-27-5-33-3-28 4-50 4-50 0 0 3-8 3-11 0-4 0-7 0-7 0 0 0-7-5-17-6-18-4-42-4-42 0 0 2-19 8-42 4-19 6-41 6-41l0-52c0 0 0-13-1-26-1-11 7-12 7-12 0 0 160 0 163 0 10-1 9 8 9 8l-1 12 0 49c0 0 1 29 1 35 1 9 4 23 4 23 0 0 2 10 3 13 2 11 3 21 3 21 0 0 2 20 0 30"/>
<glyph glyph-name="i100" unicode="&#57442;" d="M489 322l-17-23-228 167-228-167-17 23 245 181 151-112 0 27 29 0 0-48z m-439-27l0-265 129 0 0 123c0 36 29 65 65 65 36 0 65-29 65-65l0-123 129 0 0 265-194 142z"/>
<glyph glyph-name="i101" unicode="&#57443;" d="M474 444c-5 0-10-3-13-6-98-99-189-206-285-304l-144 116c-8 7-21 6-28-3-6-8-5-21 3-28l158-127c8-6 20-6 27 1 102 103 197 215 297 317 14 16 2 34-15 34z"/>
<glyph glyph-name="i102" unicode="&#57444;" d="M96 224l0 41-42 0c-17 0-30 14-30 32l0 91c0 18 13 32 30 32l190 0c16 0 30-14 30-32l0-91c0-18-14-32-30-32l0-23c29 0 52 25 52 55l0 91c0 30-23 55-52 55l-190 0c-29 0-53-25-53-55l0-91c0-30 24-55 53-55l20 0 0-39c0-6 4-12 10-14 1 0 3-1 5-1 4 0 8 2 10 5l42 49 41 0 0 23-51 0z m349 98l-129 0 0-22 129 0c16 0 29-14 29-32l0-92c0-17-13-32-29-32l-43 0 0-40-34 40-114 0c-16 0-30 15-30 32l0 92c0 18 14 32 30 32l0 22c-29 0-52-24-52-54l0-92c0-30 23-54 52-54l103 0 42-49c3-3 6-5 11-5 1 0 3 0 5 1 5 2 9 7 9 14l0 39 21 0c28 0 52 24 52 54l0 92c0 30-24 54-52 54z m-312 84l-40-104 23 0 8 23 39 0 8-23 24 0-39 104z m-3-64l14 38 13-38z m169-143c0-12 8-19 20-19 14 0 28 9 33 13 4 4 17 19 22 30 7-3 10-9 10-15 0-13-12-21-33-23l10-13c32 4 42 17 42 36 0 17-10 27-23 31 0 1 1 3 1 4l-18 3c0-2-1-2-1-4-6 0-14-1-16-1 0 3 0 12 0 15 15 1 30 2 44 4l-2 18c-14-3-27-5-41-5 1 3 1 13 1 13l-19 2c0-5 0-11 0-16-9 0-19 0-24 0l1-17 2 0c5 0 13 0 20 0 0-4 1-14 1-19-17-7-30-20-30-37z m57 27c-2-5-5-10-9-13 0 4 0 8-1 12 2 0 7 1 10 1z m-26-7c0-7 1-13 2-19-3-2-6-3-9-3-6 0-6 4-6 5 0 7 5 13 13 17z"/>
<glyph glyph-name="i103" unicode="&#57445;" d="M256 210c-82 0-149 67-149 148 0 82 67 149 149 149 82 0 149-66 149-148 0-82-67-149-149-149z m0 246c-54 0-99-43-99-98 0-54 45-97 99-97 54 0 99 44 99 98 0 54-45 97-99 97z m210-453c-14 0-25 12-25 25 0 101-83 183-185 183-102 0-185-82-185-183 0-13-11-25-25-25-14 0-26 12-26 25 0 129 106 233 235 233 130 0 235-104 235-233 1-13-10-25-24-25z"/>
<glyph glyph-name="i104" unicode="&#57446;" d="M438 10l-374 0c-35 0-64 28-64 64l0 374c0 35 29 64 64 64l374 0c36 0 64-29 64-64l0-374c0-36-28-64-64-64z m-381 460c-8 0-15-7-15-15l0-388c0-9 7-16 15-16l388 0c9 0 16 7 16 16l0 388c0 8-7 15-16 15z m247-298c0-2-1-4-2-5-20-18-34-30-43-35-10-6-18-8-25-8-6 0-12 2-16 6-4 5-6 10-6 17 0 18 10 60 31 129 1 1 1 2 1 3-1 0-1-1-2-1-2-1-7-6-23-21-2-2-6-2-8 0l-10 7c-1 1-2 3-2 5 0 1 0 3 2 5 14 15 27 27 39 33 12 7 23 11 32 11 6 0 11-2 15-5 3-3 5-7 5-13 0-3-1-12-13-52-17-58-22-79-22-86 3 1 11 7 28 22 2 3 6 3 9 0l8-8c1-1 2-3 2-4z m-1 204c0-7-3-14-8-20-6-6-12-9-19-9-6 0-12 2-16 6-3 4-5 10-5 16 0 8 2 15 7 20 6 6 12 9 19 9 6 0 12-2 16-6 4-4 6-10 6-16z"/>
<glyph glyph-name="i105" unicode="&#57447;" d="M478 94c-16 84-89 146-175 146l-90 0c-87 0-161-64-176-150-7-44 27-82 71-82l300 0c44 0 77 40 70 83z m-41-40c-7-9-18-14-29-14l-300 0c-11 0-22 5-29 14-8 8-10 20-9 31 11 71 71 122 143 122l89 0c70 0 131-50 143-119l1-3c2-11-1-22-9-31z m-273 249c26-26 60-39 94-39 32 0 65 12 90 36l2 2c45 42 49 112 10 160-27 32-65 48-102 48l0-32c29 0 57-13 76-37 29-34 26-85-7-116l-1-1c-19-18-43-28-68-28-27 0-52 11-71 30-31 31-33 79-7 113 18 25 47 39 78 39l0 32c-39 0-78-17-104-51-36-46-32-113 10-155z"/>
<glyph glyph-name="i106" unicode="&#57448;" d="M411 292c25-15 25-38 0-53l-316-190c-24-14-44-3-44 25l0 383c0 28 20 39 44 24z"/>
<glyph glyph-name="i107" unicode="&#57449;" d="M490 435c-7 4-16 7-25 7l-418 0c-11 0-21-5-30-12l239-188z m17-17c0-2-3-2 0 0l-242-197c-4-2-9-4-14 0l-248 190c-2-4-2-9-2-16l0-278c0-26 21-47 46-47l418 0c25 0 46 21 46 47l0 278c0 7-2 16-4 23z"/>
<glyph glyph-name="i108" unicode="&#57450;" d="M199 205c-9 0-18-4-24-11-6-6-10-15-10-25 0-10 4-19 10-25 6-7 15-11 24-11 10 0 19 4 25 11 6 6 10 15 10 25 0 10-4 19-10 25-6 7-15 11-25 11z m0-51c-8 0-14 6-14 15 0 8 6 15 14 15 9 0 15-7 15-15 0-9-6-15-15-15z m307 98c0 7-2 12-6 16l-58 61c-14 15-32 22-52 22l-4 0 0 28-251 0 0-50-60 0c-4 0-6-3-6-7 0-3 2-6 6-6l60 0 0-139 24 0c2 8 6 16 11 22 8 7 18 12 29 12 12 0 22-5 30-12 5-6 9-14 11-22l154 0c2 8 6 16 12 22 7 7 17 12 29 12 11 0 21-5 29-12 5-6 9-14 11-22l10 0c12 0 21 10 21 22z m-119 26l0 53 16 0c9 0 16-3 22-9l41-44z m48-73c-10 0-19-4-25-11-6-6-10-15-10-25 0-10 4-19 10-25 6-7 15-11 25-11 9 0 18 4 24 11 7 6 11 15 11 25 0 10-4 19-11 25-6 7-15 11-24 11z m0-51c-8 0-15 6-15 15 0 8 7 15 15 15 8 0 15-7 15-15 0-9-7-15-15-15z m-345 124c0 4-3 7-6 7l-63 0c-3 0-6-3-6-7 0-4 3-6 6-6l63 0c3 0 6 2 6 6z m23-44l-78 0c-3 0-6-2-6-6 0-4 3-7 6-7l78 0c3 0 6 3 6 7 0 4-3 6-6 6z"/>
<glyph glyph-name="i109" unicode="&#57451;" d="M0 293l512 0 0-74-512 0z m293 219l0-512-74 0 0 512z"/>
<glyph glyph-name="i110" unicode="&#57452;" d="M336 502l-176 0c-20 0-37-17-37-37l0-418c0-20 17-37 37-37l176 0c21 0 37 17 37 37l0 418c0 20-16 37-37 37z m-88-472c-12 0-22 10-22 22 0 13 10 23 22 23 12 0 22-10 22-23 0-12-10-22-22-22z m108 65c0-1 0-1-1-1l-214 0c-1 0-1 0-1 1l0 322c0 1 0 1 1 1l214 0c1 0 1 0 1-1z"/>
<glyph glyph-name="i111" unicode="&#57453;" d="M0 293l512 0 0-74-512 0z"/>
<glyph glyph-name="i112" unicode="&#57454;" d="M456 128c0 0-8 6-12 14-5 8-9 18-9 18l10 5c0 0 0-9 4-19 3-11 7-18 7-18m-19-12c0 0-10 6-15 15-6 10-10 21-10 21l11 5c0 0 1-10 5-22 4-11 9-19 9-19m-21-15c0 0-10 8-15 18-5 11-8 23-8 23l12 5c0 0 0-11 3-24 3-13 8-22 8-22m-25-17c0 0-11 10-16 22-5 14-8 28-8 28l15 4c0 0-2-12 1-28 3-15 8-26 8-26m-36-15c0 0-12 12-16 27-4 16-5 33-5 33l20 3c0 0-4-14-4-32 1-18 5-31 5-31m-41-8c0 0-14 16-17 32-4 19-3 38-3 38l26 2c0 0-7-15-8-36-1-21 2-36 2-36m-37-4c0 0-11 15-15 32-3 19-3 37-3 37l23 2c0 0-6-15-7-36 0-20 2-35 2-35m-95 8c0 0 19 12 28 28 9 18 14 38 14 38l-29 11c0 0 3-18-1-40-5-22-12-37-12-37m-161 101c0 0 21 3 36 13 16 12 29 27 29 27l-16 19c0 0-7-16-21-33-15-16-28-26-28-26m120-99c0 0 21 12 32 29 11 19 17 40 17 40l-31 14c0 0 3-20-3-44-6-23-15-39-15-39m-32 11c0 0 22 11 33 28 12 20 19 41 19 41l-30 15c0 0 2-21-5-45-7-23-17-39-17-39m-45 12c0 0 28 10 43 29 17 21 28 46 28 46l-34 21c0 0 0-24-12-52-11-27-25-44-25-44m-28 42c0 0 24 5 39 18 17 15 29 34 29 34l-25 22c0 0-3-20-17-41-13-21-26-33-26-33m191-73c0 0 11 17 16 32 6 18 10 35 10 35l-18 4c0 0 0-15-3-35-3-20-5-36-5-36m236 116c0 0-49 86-142 118-37 12-73 18-107 18-32 0-51-5-51-5l3-13c0 0 58 11 148-19 62-20 105-64 125-88-23-12-82-36-170-36-114 0-201 84-202 85l-18-18c4-5 92-101 219-102 2 0 4 0 5 0 123 0 190 54 192 56z m41 173c-29-53-149 27-260 48-111 21-212-31-235-49-24-18 63 90 235 106 172 16 283-65 260-105"/>
</font>
</defs>
</svg>
